<?xml version="1.0" encoding="UTF-8"?>
<!DOCTYPE svg PUBLIC "-//W3C//DTD SVG 1.1//EN" "http://www.w3.org/Graphics/SVG/1.1/DTD/svg11.dtd">
<!-- Creator: CorelDRAW -->
<svg xmlns="http://www.w3.org/2000/svg" xml:space="preserve" width="7.62cm" height="7.62cm" style="shape-rendering:geometricPrecision; text-rendering:geometricPrecision; image-rendering:optimizeQuality; fill-rule:evenodd; clip-rule:evenodd"
viewBox="0 0 7.62 7.62"
 xmlns:xlink="http://www.w3.org/1999/xlink">
 <defs>
  <style type="text/css">
   <![CDATA[
    .str2 {stroke:#3266AF;stroke-width:0.02}
    .str10 {stroke:#FEFEFE;stroke-width:0.02}
    .str11 {stroke:#0290C7;stroke-width:0.03387}
    .str9 {stroke:#3266AF;stroke-width:0.06773}
    .str3 {stroke:#3266AF;stroke-width:0.06773;stroke-linecap:round;stroke-linejoin:round}
    .str8 {stroke:#FEFEFE;stroke-width:0.06773}
    .str6 {stroke:#0290C7;stroke-width:0.06773}
    .str7 {stroke:#0A6298;stroke-width:0.06773}
    .str0 {stroke:black;stroke-width:0.02;stroke-dasharray:0.200000 0.100000}
    .str5 {stroke:#3266AF;stroke-width:0.06773}
    .str4 {stroke:#FEFEFE;stroke-width:0.06773}
    .str1 {stroke:#0A6298;stroke-width:0.06773}
    .fil1 {fill:none}
    .fil3 {fill:#3266AF}
    .fil4 {fill:#FEFEFE}
    .fil0 {fill:#80CFD7;fill-opacity:0.301961}
    .fil2 {fill:#80CFD7;fill-opacity:0.600000}
   ]]>
  </style>
 </defs>
 <g id="Camada_x0020_1">
  <metadata id="CorelCorpID_0Corel-Layer"/>
  <g id="_363976688">
   <path id="_367004488" class="fil0" d="M4.09489 5.82594c-0.68798,-0.46779 -1.509,-0.11258 -2.18786,0.10133 -0.52025,0.16395 -0.62498,-0.578 -0.3837,-1.48238 0.21252,-0.90722 0.70128,-1.78896 1.47453,-2.43959 0.67322,-0.56644 1.39565,-0.7987 2.07139,-0.79035 0.67114,0.03606 1.13978,0.37354 1.2544,0.94237 0.12486,0.61959 -0.10083,1.45702 -0.67662,2.32972 -0.70216,0.87713 -0.02504,1.59554 -0.15826,1.84434 -0.13172,0.24599 -0.70592,-0.03763 -1.39388,-0.50544z"/>
   <path id="_367004320" class="fil1 str0" d="M6.11305 2.94421c-0.29835,0.91802 0.36334,1.71769 0.82158,2.40473 0.35118,0.52655 -0.44154,0.88355 -1.52729,0.9077 -1.0796,0.05708 -2.22032,-0.20184 -3.19568,-0.85261 -0.84917,-0.56656 -1.34194,-1.29623 -1.55152,-2.0518 -0.17723,-0.75942 0.04697,-1.39085 0.6436,-1.70282 0.64985,-0.33982 1.65598,-0.35962 2.8148,-0.00081 1.20468,0.49819 1.78575,-0.48894 2.1061,-0.4211 0.31674,0.06707 0.18674,0.79869 -0.11159,1.71671z"/>
   <path id="_367003192" class="fil2" d="M5.79325 3.07004c-0.25713,0.79122 0.31316,1.48042 0.7081,2.07257 0.30268,0.45381 -0.38056,0.7615 -1.31633,0.78231 -0.93047,0.04919 -1.9136,-0.17396 -2.75423,-0.73483 -0.73189,-0.48831 -1.15659,-1.11719 -1.33723,-1.76838 -0.15274,-0.65452 0.0405,-1.19874 0.5547,-1.46761 0.5601,-0.29287 1.42724,-0.30995 2.426,-0.0007 1.03827,0.42938 1.53907,-0.4214 1.81518,-0.36293 0.27298,0.0578 0.16094,0.68836 -0.09619,1.47957zm-1.53906 -0.64486c0.58268,0.20626 0.88784,0.84581 0.68159,1.42848 -0.20625,0.58268 -0.84581,0.88784 -1.42848,0.68161 -0.58268,-0.20626 -0.88784,-0.84581 -0.68161,-1.4285 0.20626,-0.58267 0.84581,-0.88784 1.4285,-0.68159z"/>
   <g>
    <line id="_367003720" class="fil1 str1" x1="5.02801" y1="2.93461" x2="5.57952" y2= "2.71841" />
   </g>
   <g>
    <line id="_367003024" class="fil1 str1" x1="3.96211" y1="4.74834" x2="3.95528" y2= "5.39398" />
   </g>
   <g>
    <line id="_367002592" class="fil1 str1" x1="3.10268" y1="2.47576" x2="2.73625" y2= "1.97092" />
   </g>
   <circle id="_367002424" class="fil3 str2" cx="2.11145" cy="2.07944" r="0.0654908"/>
   <g>
    <path id="_367002352" class="fil1 str3" d="M3.38952 2.96619c0.17233,0 0.34489,0 0.51722,0 0.17232,0 0.3449,0 0.51734,0 0.04672,0 0.08491,0.05961 0.08491,0.13246 0,0.13311 0,0.26653 0,0.40037 0,0.13437 0.00509,0.26916 0,0.40417 -0.00274,0.07248 -0.08256,0.13224 -0.12453,0.11329 -0.17046,-0.07699 -0.31187,-0.26509 -0.4953,-0.32496 -0.15999,-0.05221 -0.33547,-0.03041 -0.50265,-0.04426 -0.04493,-0.00372 -0.08176,-0.04067 -0.08176,-0.08725 0,-0.08482 0,-0.16963 0,-0.25445 0,-0.08482 0,-0.16964 0,-0.25455 0,-0.04659 0.03805,-0.08482 0.08477,-0.08482z"/>
    <path id="_367002784" class="fil3 str2" d="M3.64714 3.12439c0.05289,0 0.09587,0.04246 0.09667,0.09516l-0.19334 0c0.0008,-0.0527 0.04378,-0.09516 0.09667,-0.09516z"/>
    <path id="_367001488" class="fil3 str2" d="M4.08681 3.10984c0.04723,0 0.08598,0.03617 0.09009,0.08233 -0.00411,0.03942 -0.04286,0.07032 -0.09009,0.07032 -0.04722,0 -0.08597,-0.0309 -0.09009,-0.07032 0.00412,-0.04616 0.04287,-0.08233 0.09009,-0.08233z"/>
    <path id="_367002136" class="fil3 str2" d="M3.88109 3.46389c0.05289,0 0.09587,-0.04246 0.09667,-0.09516l-0.19334 0c0.0008,0.0527 0.04378,0.09516 0.09667,0.09516z"/>
   </g>
   <g>
    <line id="_367001848" class="fil1 str4" x1="2.68315" y1="3.05632" x2="2.40333" y2= "2.94632" />
   </g>
   <g>
    <line id="_367001872" class="fil1 str4" x1="3.45684" y1="4.67782" x2="3.35901" y2= "4.97634" />
   </g>
   <g>
    <line id="_367001296" class="fil1 str1" x1="4.30464" y1="2.28263" x2="4.42467" y2= "1.75837" />
   </g>
   <g>
    <line id="_367001128" class="fil1 str5" x1="2.74241" y1="4.04423" x2="2.4305" y2= "4.2123" />
   </g>
   <circle id="_367000696" class="fil1 str6" transform="matrix(1.06753 0.377867 -0.377867 1.06753 3.88074 3.48022)" r="1.12183"/>
   <path id="_367000336" class="fil1 str7" d="M3.24616 2.38003c0.12835,-0.0741 0.26865,-0.12517 0.4146,-0.15091"/>
   <path id="_367000216" class="fil1 str8" d="M5.07516 3.91472c-0.07628,0.20955 -0.20636,0.39534 -0.37719,0.53869"/>
   <circle id="_367000240" class="fil1 str7" transform="matrix(1.10489 0.248236 -0.248236 1.10489 4.4436 1.67417)" r="0.0762"/>
   <circle id="_367000504" class="fil1 str8" transform="matrix(0.434221 -1.04588 1.04588 0.434221 2.32363 2.91323)" r="0.0762"/>
   <circle id="_367000408" class="fil1 str8" transform="matrix(-1.01102 -0.510143 0.510143 -1.01102 3.32013 5.05338)" r="0.0762"/>
   <circle id="_366999496" class="fil1 str9" transform="matrix(-0.573837 -0.976279 0.976279 -0.573837 2.35611 4.25603)" r="0.0762"/>
   <circle id="_366999568" class="fil4 str10" cx="1.9657" cy="4.67403" r="0.0654908"/>
   <circle id="_366999280" class="fil3 str2" cx="5.10995" cy="2.26284" r="0.0654908"/>
   <circle id="_366999616" class="fil1 str11" transform="matrix(0.940462 0.332889 -0.332889 0.940462 3.88074 3.48022)" r="1.12183"/>
   <circle id="_366999232" class="fil4 str10" cx="1.85444" cy="3.59664" r="0.0654908"/>
   <circle id="_366999712" class="fil4 str10" cx="4.76963" cy="5.19287" r="0.0654908"/>
   <circle id="_366999880" class="fil3 str2" cx="2.63533" cy="4.65629" r="0.0654908"/>
   <circle id="_366999184" class="fil3 str2" cx="5.45657" cy="4.06082" r="0.0654908"/>
   <circle id="_366999016" class="fil1 str7" transform="matrix(4.63941 -2.95942 2.95942 4.63941 2.51074 1.61739)" r="0.0762"/>
   <circle id="_366998608" class="fil1 str7" transform="matrix(-5.5027 -0.0511128 0.0511128 -5.5027 3.95138 5.81329)" r="0.0762"/>
   <circle id="_366998896" class="fil1 str7" transform="matrix(1.3456 5.3466 -5.34664 1.34565 5.98693 2.61588)" r="0.0762"/>
  </g>
 </g>
</svg>
