<?xml version="1.0" encoding="UTF-8"?>
<!DOCTYPE svg PUBLIC "-//W3C//DTD SVG 1.1//EN" "http://www.w3.org/Graphics/SVG/1.1/DTD/svg11.dtd">
<!-- Creator: CorelDRAW -->
<svg xmlns="http://www.w3.org/2000/svg" xml:space="preserve" width="5.08cm" height="5.08cm" style="shape-rendering:geometricPrecision; text-rendering:geometricPrecision; image-rendering:optimizeQuality; fill-rule:evenodd; clip-rule:evenodd"
viewBox="0 0 5.08 5.08"
 xmlns:xlink="http://www.w3.org/1999/xlink">
 <defs>
  <style type="text/css">
   <![CDATA[
    .str0 {stroke:#69686D;stroke-width:0.02}
    .fil5 {fill:none}
    .fil33 {fill:#FEFEFE}
    .fil3 {fill:#00CC99}
    .fil35 {fill:#035348}
    .fil0 {fill:#075045}
    .fil36 {fill:#08C99D}
    .fil2 {fill:#099F84}
    .fil34 {fill:#0A9E84}
    .fil1 {fill:#167464}
    .fil30 {fill:url(#id0)}
    .fil19 {fill:url(#id1)}
    .fil10 {fill:url(#id2)}
    .fil16 {fill:url(#id3)}
    .fil12 {fill:url(#id4)}
    .fil20 {fill:url(#id5)}
    .fil22 {fill:url(#id6)}
    .fil7 {fill:url(#id7)}
    .fil24 {fill:url(#id8)}
    .fil25 {fill:url(#id9)}
    .fil15 {fill:url(#id10)}
    .fil29 {fill:url(#id11)}
    .fil27 {fill:url(#id12)}
    .fil26 {fill:url(#id13)}
    .fil28 {fill:url(#id14)}
    .fil11 {fill:url(#id15)}
    .fil6 {fill:url(#id16)}
    .fil13 {fill:url(#id17)}
    .fil18 {fill:url(#id18)}
    .fil9 {fill:url(#id19)}
    .fil8 {fill:url(#id20)}
    .fil21 {fill:url(#id21)}
    .fil23 {fill:url(#id22)}
    .fil17 {fill:url(#id23)}
    .fil4 {fill:url(#id24)}
    .fil14 {fill:url(#id25)}
    .fil31 {fill:url(#id26)}
    .fil32 {fill:url(#id27)}
   ]]>
  </style>
  <linearGradient id="id0" gradientUnits="userSpaceOnUse" x1="3.44266" y1="3.07649" x2="3.44266" y2="2.63831">
   <stop offset="0" style="stop-color:#10B14A"/>
   <stop offset="1" style="stop-color:#A8D137"/>
  </linearGradient>
  <linearGradient id="id1" gradientUnits="userSpaceOnUse" x1="3.33203" y1="3.0439" x2="3.28265" y2="2.99406">
   <stop offset="0" style="stop-color:#030000"/>
   <stop offset="1" style="stop-color:#030303"/>
  </linearGradient>
  <linearGradient id="id2" gradientUnits="userSpaceOnUse" xlink:href="#id1" x1="3.70267" y1="3.39298" x2="3.61687" y2="3.31452">
  </linearGradient>
  <linearGradient id="id3" gradientUnits="userSpaceOnUse" xlink:href="#id1" x1="3.36229" y1="3.28211" x2="3.27489" y2="3.37729">
  </linearGradient>
  <linearGradient id="id4" gradientUnits="userSpaceOnUse" x1="3.45839" y1="3.44854" x2="3.45853" y2="3.43622">
   <stop offset="0" style="stop-color:#420000"/>
   <stop offset="1" style="stop-color:#424242"/>
  </linearGradient>
  <linearGradient id="id5" gradientUnits="userSpaceOnUse" xlink:href="#id1" x1="3.23985" y1="3.35717" x2="3.15016" y2="3.43356">
  </linearGradient>
  <linearGradient id="id6" gradientUnits="userSpaceOnUse" xlink:href="#id1" x1="3.11341" y1="3.17406" x2="3.10429" y2="3.17416">
  </linearGradient>
  <linearGradient id="id7" gradientUnits="userSpaceOnUse" xlink:href="#id1" x1="3.71803" y1="2.97052" x2="3.62467" y2="3.04362">
  </linearGradient>
  <linearGradient id="id8" gradientUnits="userSpaceOnUse" xlink:href="#id1" x1="3.22796" y1="2.98663" x2="3.14332" y2="2.92025">
  </linearGradient>
  <linearGradient id="id9" gradientUnits="userSpaceOnUse" x1="3.24796" y1="2.90747" x2="3.22648" y2="2.88099">
   <stop offset="0" style="stop-color:#0D0000"/>
   <stop offset="1" style="stop-color:#0D0D0D"/>
  </linearGradient>
  <linearGradient id="id10" gradientUnits="userSpaceOnUse" xlink:href="#id1" x1="3.46755" y1="2.99705" x2="3.29257" y2="3.12485">
  </linearGradient>
  <linearGradient id="id11" gradientUnits="userSpaceOnUse" xlink:href="#id1" x1="3.2585" y1="2.70931" x2="3.24096" y2="2.71769">
  </linearGradient>
  <linearGradient id="id12" gradientUnits="userSpaceOnUse" xlink:href="#id1" x1="3.383" y1="2.88063" x2="3.3114" y2="2.91927">
  </linearGradient>
  <linearGradient id="id13" gradientUnits="userSpaceOnUse" xlink:href="#id1" x1="3.44319" y1="2.99865" x2="3.37295" y2="3.03421">
  </linearGradient>
  <linearGradient id="id14" gradientUnits="userSpaceOnUse" xlink:href="#id1" x1="3.32131" y1="2.7663" x2="3.25111" y2="2.80258">
  </linearGradient>
  <linearGradient id="id15" gradientUnits="userSpaceOnUse" x1="3.58578" y1="3.44348" x2="3.56118" y2="3.39008">
   <stop offset="0" style="stop-color:#240000"/>
   <stop offset="1" style="stop-color:#242424"/>
  </linearGradient>
  <linearGradient id="id16" gradientUnits="userSpaceOnUse" xlink:href="#id1" x1="3.59122" y1="2.90064" x2="3.56274" y2="2.95992">
  </linearGradient>
  <linearGradient id="id17" gradientUnits="userSpaceOnUse" x1="3.34868" y1="3.44097" x2="3.36362" y2="3.40499">
   <stop offset="0" style="stop-color:#540000"/>
   <stop offset="1" style="stop-color:#545454"/>
  </linearGradient>
  <linearGradient id="id18" gradientUnits="userSpaceOnUse" xlink:href="#id1" x1="3.28769" y1="3.11116" x2="3.23675" y2="3.09272">
  </linearGradient>
  <linearGradient id="id19" gradientUnits="userSpaceOnUse" xlink:href="#id1" x1="3.74079" y1="3.25864" x2="3.69083" y2="3.2433">
  </linearGradient>
  <linearGradient id="id20" gradientUnits="userSpaceOnUse" xlink:href="#id1" x1="3.74081" y1="3.11989" x2="3.70535" y2="3.12649">
  </linearGradient>
  <linearGradient id="id21" gradientUnits="userSpaceOnUse" xlink:href="#id1" x1="3.15809" y1="3.28139" x2="3.10811" y2="3.29993">
  </linearGradient>
  <linearGradient id="id22" gradientUnits="userSpaceOnUse" xlink:href="#id1" x1="3.15076" y1="3.06517" x2="3.1074" y2="3.05069">
  </linearGradient>
  <linearGradient id="id23" gradientUnits="userSpaceOnUse" xlink:href="#id1" x1="3.27438" y1="3.21904" x2="3.23648" y2="3.2281">
  </linearGradient>
  <linearGradient id="id24" gradientUnits="userSpaceOnUse" xlink:href="#id1" x1="3.51536" y1="3.0731" x2="3.45614" y2="3.0596">
  </linearGradient>
  <linearGradient id="id25" gradientUnits="userSpaceOnUse" xlink:href="#id1" x1="3.54658" y1="3.00649" x2="3.45294" y2="2.98517">
  </linearGradient>
  <radialGradient id="id26" gradientUnits="userSpaceOnUse" cx="3.44925" cy="3.18788" r="0.356" fx="3.44925" fy="3.18788">
   <stop offset="0" style="stop-color:#FEFEFE"/>
   <stop offset="0.141176" style="stop-color:#989797"/>
   <stop offset="1" style="stop-color:#323031"/>
  </radialGradient>
  <radialGradient id="id27" gradientUnits="userSpaceOnUse" cx="3.44746" cy="3.18671" r="0.27599" fx="3.44746" fy="3.18671">
   <stop offset="0" style="stop-color:#69686D"/>
   <stop offset="0.192157" style="stop-color:#5D5B60"/>
   <stop offset="0.839216" style="stop-color:#353033"/>
   <stop offset="1" style="stop-color:#2A2627"/>
  </radialGradient>
 </defs>
 <g id="Camada_x0020_1">
  <metadata id="CorelCorpID_0Corel-Layer"/>
  <g id="_316342104">
   <polygon id="_314395208" class="fil0" points="2.5823,2.53787 2.57809,0.58632 4.19948,1.59807 "/>
   <polygon id="_314395016" class="fil1" points="2.58235,4.50214 4.19948,3.53695 4.19948,1.60653 2.58235,2.54633 "/>
   <polygon id="_314394728" class="fil2" points="2.57388,4.50639 0.88054,3.53695 0.88054,1.60653 2.57388,2.54633 "/>
   <polygon id="_314394800" class="fil3" points="2.57388,2.53787 2.57809,0.58632 0.88054,1.59807 "/>
   <g>
    <polygon id="_314396192" class="fil4" points="3.46439,3.17455 3.45773,3.17354 3.50663,2.95932 3.51378,2.95815 "/>
    <polygon id="_314396504" class="fil5" points="3.46439,3.17455 3.45773,3.17354 3.50663,2.95932 3.51378,2.95815 "/>
    <polygon id="_314396288" class="fil6" points="3.52546,2.9032 3.5182,2.90492 3.54193,2.91147 3.56484,2.92008 3.58679,2.93065 3.6077,2.94309 3.62738,2.95737 3.63577,2.95618 3.61587,2.94177 3.59475,2.92919 3.57256,2.91852 3.54944,2.90982 "/>
    <polygon id="_314396768" class="fil7" points="3.63577,2.95618 3.62738,2.95737 3.64579,2.97336 3.66274,2.99101 3.67815,3.01021 3.69348,3.0336 3.70616,3.05797 3.71533,3.0578 3.70254,3.03319 3.68704,3.00954 3.67148,2.99014 3.65435,2.97234 "/>
    <polygon id="_314396888" class="fil8" points="3.71533,3.0578 3.70616,3.05797 3.71616,3.08309 3.72357,3.10879 3.72836,3.13489 3.7306,3.16118 3.73032,3.18745 3.73973,3.18858 3.74001,3.16205 3.73776,3.1355 3.73291,3.10915 3.72543,3.08318 "/>
    <polygon id="_314396936" class="fil9" points="3.73973,3.18858 3.73032,3.18745 3.72751,3.21354 3.72223,3.23924 3.71453,3.26436 3.70441,3.28871 3.6919,3.3121 3.70092,3.3145 3.71356,3.29086 3.72378,3.26627 3.73157,3.2409 3.73689,3.21495 "/>
    <polygon id="_314396312" class="fil10" points="3.70092,3.3145 3.6919,3.3121 3.67704,3.33434 3.65985,3.35525 3.64038,3.37461 3.61864,3.39224 3.62693,3.39542 3.64888,3.37763 3.66856,3.35807 3.68592,3.33697 "/>
    <polygon id="_314396864" class="fil11" points="3.62693,3.39542 3.61864,3.39224 3.59524,3.40757 3.57087,3.42025 3.54576,3.43026 3.52004,3.43766 3.52732,3.44132 3.55331,3.43385 3.57868,3.42372 3.60328,3.41093 "/>
    <polygon id="_314397368" class="fil12" points="3.52732,3.44132 3.52004,3.43766 3.49395,3.44246 3.46766,3.4447 3.44139,3.44441 3.41531,3.44161 3.38961,3.43634 3.39558,3.43998 3.42154,3.44532 3.44788,3.44813 3.47443,3.44843 3.50098,3.44616 "/>
    <polygon id="_314397680" class="fil13" points="3.39558,3.43998 3.38961,3.43634 3.36448,3.42864 3.34014,3.41851 3.31672,3.40599 3.32196,3.40935 3.34561,3.42197 3.3702,3.4322 "/>
    <polygon id="_314397056" class="fil5" points="3.52546,2.9032 3.5182,2.90492 3.54193,2.91147 3.56484,2.92008 3.58679,2.93065 3.6077,2.94309 3.62738,2.95737 3.64579,2.97336 3.66274,2.99101 3.67815,3.01021 3.69348,3.0336 3.70616,3.05797 3.71616,3.08309 3.72357,3.10879 3.72836,3.13489 3.7306,3.16118 3.73032,3.18745 3.72751,3.21354 3.72223,3.23924 3.71453,3.26436 3.70441,3.28871 3.6919,3.3121 3.67704,3.33434 3.65985,3.35525 3.64038,3.37461 3.61864,3.39224 3.59524,3.40757 3.57087,3.42025 3.54576,3.43026 3.52004,3.43766 3.49395,3.44246 3.46766,3.4447 3.44139,3.44441 3.41531,3.44161 3.38961,3.43634 3.36448,3.42864 3.34014,3.41851 3.31672,3.40599 3.32196,3.40935 3.34561,3.42197 3.3702,3.4322 3.39558,3.43998 3.42154,3.44532 3.44788,3.44813 3.47443,3.44843 3.50098,3.44616 3.52732,3.44132 3.55331,3.43385 3.57868,3.42372 3.60328,3.41093 3.62693,3.39542 3.64888,3.37763 3.66856,3.35807 3.68592,3.33697 3.70092,3.3145 3.71356,3.29086 3.72378,3.26627 3.73157,3.2409 3.73689,3.21495 3.73973,3.18858 3.74001,3.16205 3.73776,3.1355 3.73291,3.10915 3.72543,3.08318 3.71533,3.0578 3.70254,3.03319 3.68704,3.00954 3.67148,2.99014 3.65435,2.97234 3.63577,2.95618 3.61587,2.94177 3.59475,2.92919 3.57256,2.91852 3.54944,2.90982 "/>
    <polygon id="_314397200" class="fil14" points="3.46349,3.16937 3.45684,3.16842 3.53525,2.8248 3.54268,2.82229 "/>
    <polygon id="_314397560" class="fil5" points="3.46349,3.16937 3.45684,3.16842 3.53525,2.8248 3.54268,2.82229 "/>
    <polygon id="_314397248" class="fil15" points="3.30114,2.94945 3.29611,2.95073 3.45736,3.17146 3.46402,3.17245 "/>
    <polygon id="_314397488" class="fil5" points="3.30114,2.94945 3.29611,2.95073 3.45736,3.17146 3.46402,3.17245 "/>
    <polygon id="_314397152" class="fil16" points="3.36921,3.37507 3.3635,3.37206 3.3447,3.36202 3.32684,3.35008 3.31003,3.33627 3.2945,3.32061 3.28031,3.30314 3.26798,3.28434 3.27272,3.28646 3.28518,3.30544 3.29949,3.32308 3.3152,3.3389 3.33218,3.35286 3.35023,3.36491 "/>
    <polygon id="_314398496" class="fil17" points="3.27272,3.28646 3.26798,3.28434 3.2578,3.26475 3.24976,3.24458 3.24381,3.2239 3.23995,3.20293 3.23815,3.18181 3.23839,3.1607 3.24284,3.16157 3.24259,3.18289 3.24441,3.20424 3.24831,3.22542 3.25431,3.24629 3.26244,3.26668 "/>
    <polygon id="_314397872" class="fil18" points="3.24284,3.16157 3.23839,3.1607 3.24065,3.13973 3.24488,3.11908 3.25107,3.09888 3.25921,3.07932 3.26926,3.06053 3.2812,3.04265 3.28608,3.04231 3.27402,3.06036 3.26387,3.07935 3.25565,3.09912 3.24938,3.11953 3.24509,3.1404 "/>
    <polygon id="_314398376" class="fil19" points="3.28608,3.04231 3.2812,3.04265 3.29502,3.02584 3.31066,3.01029 3.32813,2.99612 3.33349,2.99533 3.31585,3.00963 3.30004,3.02535 "/>
    <polygon id="_314398472" class="fil5" points="3.36921,3.37507 3.3635,3.37206 3.3447,3.36202 3.32684,3.35008 3.31003,3.33627 3.2945,3.32061 3.28031,3.30314 3.26798,3.28434 3.2578,3.26475 3.24976,3.24458 3.24381,3.2239 3.23995,3.20293 3.23815,3.18181 3.23839,3.1607 3.24065,3.13973 3.24488,3.11908 3.25107,3.09888 3.25921,3.07932 3.26926,3.06053 3.2812,3.04265 3.29502,3.02584 3.31066,3.01029 3.32813,2.99612 3.33349,2.99533 3.31585,3.00963 3.30004,3.02535 3.28608,3.04231 3.27402,3.06036 3.26387,3.07935 3.25565,3.09912 3.24938,3.11953 3.24509,3.1404 3.24284,3.16157 3.24259,3.18289 3.24441,3.20424 3.24831,3.22542 3.25431,3.24629 3.26244,3.26668 3.27272,3.28646 3.28518,3.30544 3.29949,3.32308 3.3152,3.3389 3.33218,3.35286 3.35023,3.36491 "/>
    <polygon id="_314398112" class="fil20" points="3.23756,3.44458 3.23317,3.4409 3.21994,3.42945 3.2072,3.41725 3.19498,3.40434 3.18333,3.39069 3.17226,3.3763 3.16194,3.36138 3.15247,3.34614 3.15604,3.34888 3.1656,3.36428 3.17604,3.37935 3.18721,3.39388 3.19899,3.40765 3.21133,3.42071 3.2242,3.43302 "/>
    <polygon id="_314398448" class="fil21" points="3.15604,3.34888 3.15247,3.34614 3.14388,3.33058 3.13614,3.31474 3.12926,3.29864 3.12323,3.28234 3.11805,3.26586 3.1137,3.2492 3.11018,3.23245 3.11333,3.23403 3.11689,3.25097 3.12128,3.26779 3.12651,3.28442 3.1326,3.3009 3.13955,3.31716 3.14736,3.33316 "/>
    <polygon id="_314397752" class="fil22" points="3.11333,3.23403 3.11018,3.23245 3.1075,3.21557 3.10566,3.19865 3.10462,3.1817 3.1044,3.16476 3.105,3.14783 3.10641,3.13098 3.1086,3.11419 3.11174,3.11458 3.10951,3.13154 3.10809,3.14858 3.10749,3.16566 3.10771,3.18279 3.10875,3.19991 3.11062,3.21701 "/>
    <polygon id="_314398352" class="fil23" points="3.11174,3.11458 3.1086,3.11419 3.11161,3.09755 3.1154,3.08107 3.11998,3.06475 3.12534,3.04868 3.13147,3.03284 3.13839,3.01729 3.14607,3.00204 3.14959,3.00129 3.14183,3.0167 3.13484,3.03242 3.12865,3.04841 3.12323,3.06466 3.11861,3.08112 3.11478,3.09778 "/>
    <polygon id="_314398928" class="fil24" points="3.14959,3.00129 3.14607,3.00204 3.15451,2.98713 3.16372,2.9726 3.17367,2.95847 3.18437,2.94476 3.19582,2.93154 3.208,2.91878 3.22094,2.90656 3.22521,2.90485 3.21215,2.9172 3.19984,2.93007 3.18828,2.94345 3.17748,2.95728 3.16741,2.97156 3.15812,2.98623 "/>
    <polygon id="_314399216" class="fil25" points="3.22521,2.90485 3.22094,2.90656 3.23456,2.89491 3.24895,2.88385 3.25351,2.8819 3.23898,2.89309 "/>
    <polygon id="_314398712" class="fil5" points="3.23756,3.44458 3.23317,3.4409 3.21994,3.42945 3.2072,3.41725 3.19498,3.40434 3.18333,3.39069 3.17226,3.3763 3.16194,3.36138 3.15247,3.34614 3.14388,3.33058 3.13614,3.31474 3.12926,3.29864 3.12323,3.28234 3.11805,3.26586 3.1137,3.2492 3.11018,3.23245 3.1075,3.21557 3.10566,3.19865 3.10462,3.1817 3.1044,3.16476 3.105,3.14783 3.10641,3.13098 3.1086,3.11419 3.11161,3.09755 3.1154,3.08107 3.11998,3.06475 3.12534,3.04868 3.13147,3.03284 3.13839,3.01729 3.14607,3.00204 3.15451,2.98713 3.16372,2.9726 3.17367,2.95847 3.18437,2.94476 3.19582,2.93154 3.208,2.91878 3.22094,2.90656 3.23456,2.89491 3.24895,2.88385 3.25351,2.8819 3.23898,2.89309 3.22521,2.90485 3.21215,2.9172 3.19984,2.93007 3.18828,2.94345 3.17748,2.95728 3.16741,2.97156 3.15812,2.98623 3.14959,3.00129 3.14183,3.0167 3.13484,3.03242 3.12865,3.04841 3.12323,3.06466 3.11861,3.08112 3.11478,3.09778 3.11174,3.11458 3.10951,3.13154 3.10809,3.14858 3.10749,3.16566 3.10771,3.18279 3.10875,3.19991 3.11062,3.21701 3.11333,3.23403 3.11689,3.25097 3.12128,3.26779 3.12651,3.28442 3.1326,3.3009 3.13955,3.31716 3.14736,3.33316 3.15604,3.34888 3.1656,3.36428 3.17604,3.37935 3.18721,3.39388 3.19899,3.40765 3.21133,3.42071 3.2242,3.43302 "/>
    <polygon id="_314398592" class="fil26" points="3.44137,3.07649 3.43493,3.07647 3.42302,3.05175 3.41104,3.02758 3.399,3.00388 3.3869,2.98058 3.37477,2.95758 3.38058,2.9564 3.39285,2.97961 3.40506,3.00315 3.41723,3.0271 3.42934,3.05151 "/>
    <polygon id="_314398736" class="fil27" points="3.38058,2.9564 3.37477,2.95758 3.36259,2.93485 3.35041,2.91225 3.33821,2.88974 3.32601,2.86724 3.31382,2.84465 3.31903,2.84232 3.33134,2.86515 3.34367,2.88787 3.35599,2.91061 3.3683,2.93343 "/>
    <polygon id="_314399192" class="fil28" points="3.31903,2.84232 3.31382,2.84465 3.30165,2.8219 3.28952,2.79891 3.27743,2.77562 3.26538,2.75192 3.2534,2.72775 3.25799,2.72423 3.2701,2.74865 3.28226,2.7726 3.29448,2.79613 3.30674,2.81936 "/>
    <polygon id="_314399048" class="fil29" points="3.25799,2.72423 3.2534,2.72775 3.24148,2.70301 3.24596,2.69926 "/>
    <polygon id="_314398832" class="fil5" points="3.44137,3.07649 3.43493,3.07647 3.42302,3.05175 3.41104,3.02758 3.399,3.00388 3.3869,2.98058 3.37477,2.95758 3.36259,2.93485 3.35041,2.91225 3.33821,2.88974 3.32601,2.86724 3.31382,2.84465 3.30165,2.8219 3.28952,2.79891 3.27743,2.77562 3.26538,2.75192 3.2534,2.72775 3.24148,2.70301 3.24596,2.69926 3.25799,2.72423 3.2701,2.74865 3.28226,2.7726 3.29448,2.79613 3.30674,2.81936 3.31903,2.84232 3.33134,2.86515 3.34367,2.88787 3.35599,2.91061 3.3683,2.93343 3.38058,2.9564 3.39285,2.97961 3.40506,3.00315 3.41723,3.0271 3.42934,3.05151 "/>
   </g>
   <g>
    <polygon id="_314394584" class="fil30" points="3.44137,3.07649 3.42934,3.05151 3.41723,3.0271 3.40506,3.00315 3.39285,2.97961 3.38058,2.9564 3.3683,2.93343 3.35599,2.91061 3.34367,2.88787 3.33134,2.86515 3.31903,2.84232 3.30674,2.81936 3.29448,2.79613 3.28226,2.7726 3.2701,2.74865 3.25799,2.72423 3.24596,2.69926 3.26019,2.68958 3.27464,2.68093 3.2893,2.67327 3.30417,2.66661 3.31925,2.66092 3.33453,2.65615 3.35,2.65231 3.36564,2.64937 3.38148,2.64729 3.39748,2.64606 3.41366,2.64566 3.43001,2.64607 3.4465,2.64725 3.46316,2.6492 3.47994,2.65188 3.49689,2.65529 3.49324,2.68303 3.48965,2.71019 3.48614,2.73689 3.48267,2.76316 3.47925,2.78913 3.47585,2.81485 3.47249,2.84042 3.46914,2.86589 3.46577,2.89137 3.46241,2.91694 3.459,2.94266 3.45558,2.96863 3.45212,2.9949 3.44861,3.0216 3.44503,3.04876 "/>
    <polygon id="_314394416" class="fil31" points="3.46349,3.16937 3.54268,2.82229 3.55826,2.82621 3.57358,2.83082 3.58864,2.83609 3.60341,2.84201 3.61786,2.84859 3.63201,2.85578 3.64579,2.86359 3.65922,2.872 3.67226,2.88101 3.68487,2.89057 3.69708,2.90072 3.70883,2.91139 3.72011,2.92262 3.7309,2.93437 3.7412,2.94664 3.75097,2.95938 3.7614,2.97444 3.77095,2.98986 3.77964,3.00556 3.78744,3.02157 3.79439,3.03785 3.80048,3.05432 3.80572,3.07095 3.81011,3.08777 3.81364,3.1047 3.81634,3.12174 3.81822,3.13883 3.81926,3.15596 3.81949,3.17309 3.81889,3.19017 3.81747,3.20721 3.81524,3.22414 3.81221,3.24095 3.80838,3.2576 3.80376,3.27408 3.79835,3.2903 3.79215,3.3063 3.78515,3.32202 3.77739,3.33742 3.76887,3.35248 3.75958,3.36717 3.74952,3.38144 3.7387,3.39529 3.72714,3.40865 3.71482,3.42152 3.70177,3.43385 3.68799,3.44563 3.67346,3.45681 3.65839,3.46724 3.64299,3.4768 3.62727,3.48549 3.61127,3.4933 3.59501,3.50024 3.57854,3.50634 3.5619,3.51157 3.54507,3.51596 3.52816,3.51951 3.51111,3.52222 3.49403,3.52408 3.47689,3.52514 3.45977,3.52535 3.44269,3.52475 3.42566,3.52333 3.40871,3.52111 3.3919,3.51808 3.37526,3.51425 3.35878,3.50963 3.34254,3.50421 3.32654,3.49801 3.31083,3.49103 3.29543,3.48327 3.28037,3.47474 3.26568,3.46545 3.2514,3.45538 3.23756,3.44458 3.2242,3.43302 3.21133,3.42071 3.19899,3.40765 3.18721,3.39388 3.17604,3.37935 3.1656,3.36428 3.15604,3.34888 3.14736,3.33316 3.13955,3.31716 3.1326,3.3009 3.12651,3.28442 3.12128,3.26779 3.11689,3.25097 3.11333,3.23403 3.11062,3.21701 3.10875,3.19991 3.10771,3.18279 3.10749,3.16566 3.10809,3.14858 3.10951,3.13154 3.11174,3.11458 3.11478,3.09778 3.11861,3.08112 3.12323,3.06466 3.12865,3.04841 3.13484,3.03242 3.14183,3.0167 3.14959,3.00129 3.15812,2.98623 3.16741,2.97156 3.17748,2.95728 3.18828,2.94345 3.19984,2.93007 3.21215,2.9172 3.22521,2.90485 3.23898,2.89309 3.25351,2.8819 "/>
    <polygon id="_314394560" class="fil32" points="3.46402,3.17245 3.52546,2.9032 3.54944,2.90982 3.57256,2.91852 3.59475,2.92919 3.61587,2.94177 3.63577,2.95618 3.65435,2.97234 3.67148,2.99014 3.68704,3.00954 3.70254,3.03319 3.71533,3.0578 3.72543,3.08318 3.73291,3.10915 3.73776,3.1355 3.74001,3.16205 3.73973,3.18858 3.73689,3.21495 3.73157,3.2409 3.72378,3.26627 3.71356,3.29086 3.70092,3.3145 3.68592,3.33697 3.66856,3.35807 3.64888,3.37763 3.62693,3.39542 3.60328,3.41093 3.57868,3.42372 3.55331,3.43385 3.52732,3.44132 3.50098,3.44616 3.47443,3.44843 3.44788,3.44813 3.42154,3.44532 3.39558,3.43998 3.3702,3.4322 3.34561,3.42197 3.32196,3.40935 3.2995,3.39433 3.2784,3.37697 3.25883,3.3573 3.24103,3.33534 3.22552,3.31171 3.21273,3.28709 3.20261,3.26172 3.19515,3.23576 3.1903,3.2094 3.18803,3.18285 3.18834,3.15632 3.19115,3.12996 3.1965,3.10398 3.20428,3.07861 3.21451,3.05402 3.22715,3.0304 3.24215,3.00792 3.25951,2.98682 3.27918,2.96726 3.30114,2.94945 "/>
    <polygon id="_314393960" class="fil33" points="3.46439,3.17455 3.51378,2.95815 3.53304,2.96347 3.55164,2.97046 3.56947,2.97904 3.58643,2.98915 3.60244,3.00073 3.61736,3.01371 3.63113,3.02803 3.64363,3.04361 3.65608,3.06263 3.66636,3.0824 3.6745,3.1028 3.68049,3.12366 3.68439,3.14485 3.68621,3.16618 3.68596,3.18752 3.6837,3.20869 3.67941,3.22956 3.67316,3.24995 3.66494,3.26973 3.65479,3.2887 3.64271,3.30675 3.62878,3.32371 3.61297,3.33943 3.59531,3.35375 3.57631,3.36621 3.55652,3.37649 3.53614,3.38462 3.51526,3.39062 3.49409,3.39451 3.47275,3.39634 3.45141,3.39609 3.43024,3.39382 3.40938,3.38955 3.38898,3.38328 3.36921,3.37507 3.35023,3.36491 3.33218,3.35286 3.3152,3.3389 3.29949,3.32308 3.28518,3.30544 3.27272,3.28646 3.26244,3.26668 3.25431,3.24629 3.24831,3.22542 3.24441,3.20424 3.24259,3.18289 3.24284,3.16157 3.24509,3.1404 3.24938,3.11953 3.25565,3.09912 3.26387,3.07935 3.27402,3.06036 3.28608,3.04231 3.30004,3.02535 3.31585,3.00963 3.33349,2.99533 "/>
   </g>
   <line id="_314392400" class="fil5 str0" x1="2.57387" y1="2.54212" x2="2.5781" y2= "4.50638" />
   <line id="_314393024" class="fil5 str0" x1="0.8763" y1="3.54118" x2="2.5781" y2= "4.50638" />
   <line id="_314392952" class="fil5 str0" x1="0.8763" y1="3.54118" x2="0.889" y2= "1.60655" />
   <line id="_314392784" class="fil5 str0" x1="4.19947" y1="3.53695" x2="4.19947" y2= "1.60655" />
   <line id="_314392544" class="fil5 str0" x1="4.19947" y1="3.53272" x2="2.5781" y2= "4.50638" />
   <g>
    <line id="_314392856" class="fil5 str0" x1="2.57387" y1="2.54212" x2="0.88477" y2= "1.60655" />
    <line id="_314392496" class="fil5 str0" x1="2.57387" y1="2.54212" x2="2.5781" y2= "0.57785" />
    <line id="_314392664" class="fil5 str0" x1="2.57387" y1="2.54212" x2="4.19947" y2= "1.60232" />
    <line id="_314408552" class="fil5 str0" x1="2.5781" y1="0.57362" x2="0.88053" y2= "1.59808" />
    <line id="_314408480" class="fil5 str0" x1="2.5781" y1="0.57362" x2="4.2037" y2= "1.59808" />
   </g>
   <polygon id="_314407736" class="fil34" points="3.17076,1.53458 3.1623,0.72176 3.38241,0.85724 3.38241,1.6531 "/>
   <polygon id="_314408096" class="fil35" points="3.38241,0.85724 3.61102,0.73026 3.60256,1.55151 3.38241,1.66156 "/>
   <polygon id="_314407832" class="fil36" points="3.38241,0.85724 3.61528,0.72601 3.38666,0.59057 3.16651,0.72601 "/>
   <g>
    <polygon id="_314400224" class="fil33" points="1.62788,2.61413 1.6532,2.59889 1.65412,2.59086 1.65504,2.58283 1.65596,2.5748 1.65687,2.56678 1.65779,2.55874 1.6587,2.55072 1.65962,2.54269 1.66054,2.53466 1.66145,2.52663 1.66237,2.5186 1.66329,2.51056 1.66421,2.50254 1.66512,2.4945 1.66604,2.48648 1.66695,2.47844 1.66787,2.47042 1.6427,2.48437 1.64177,2.49248 1.64085,2.50059 1.63992,2.5087 1.639,2.51681 1.63807,2.52492 1.63714,2.53303 1.63621,2.54114 1.63529,2.54925 1.63437,2.55736 1.63344,2.56547 1.63252,2.57359 1.63159,2.5817 1.63067,2.5898 1.62974,2.59792 1.62881,2.60602 "/>
    <polygon id="_314400896" class="fil33" points="1.6427,2.48437 1.66787,2.47042 1.62447,2.4731 1.5829,2.47833 1.54315,2.48599 1.50518,2.49596 1.469,2.50812 1.43457,2.52231 1.40188,2.53843 1.37404,2.55306 1.40706,2.53677 1.44183,2.52243 1.47837,2.51017 1.51672,2.5001 1.55687,2.49236 1.59886,2.48708 "/>
    <polygon id="_314405744" class="fil33" points="1.19204,3.15675 1.22168,3.13611 1.21926,3.11506 1.21794,3.09366 1.21771,3.07196 1.21857,3.05003 1.2205,3.02791 1.22351,3.0057 1.22758,2.98343 1.2327,2.9612 1.23888,2.93905 1.24611,2.91703 1.25436,2.89524 1.26363,2.87371 1.27393,2.85252 1.28524,2.83173 1.29756,2.81142 1.31087,2.79162 1.32516,2.77243 1.34045,2.75387 1.35669,2.73605 1.37391,2.71902 1.3921,2.70282 1.41123,2.68754 1.43131,2.67324 1.45231,2.65997 1.42497,2.67582 1.40376,2.68922 1.38348,2.70367 1.36416,2.71911 1.34579,2.73546 1.3284,2.75267 1.31199,2.77067 1.29655,2.7894 1.28211,2.8088 1.26867,2.82878 1.25623,2.84931 1.24481,2.8703 1.2344,2.89171 1.22504,2.91345 1.21671,2.93547 1.20941,2.95771 1.20317,2.98007 1.198,3.00254 1.19389,3.02502 1.19085,3.04746 1.18889,3.0698 1.18803,3.09195 1.18826,3.11387 1.18959,3.13549 "/>
    <polygon id="_314407160" class="fil33" points="1.97339,2.58832 1.99527,2.57334 2.00814,2.58239 2.02068,2.59173 2.03292,2.60134 2.04483,2.61126 2.05641,2.62146 2.06767,2.63195 2.07863,2.64274 2.08924,2.65382 2.09955,2.66519 2.10954,2.67687 2.1192,2.68884 2.12854,2.70111 2.13757,2.71367 2.14628,2.72654 2.15467,2.73972 2.16273,2.75319 2.1705,2.76697 2.17793,2.78106 2.18505,2.79546 2.19185,2.81016 2.19835,2.82517 2.20452,2.84049 2.21037,2.85612 2.21591,2.87207 2.22115,2.88833 2.22605,2.9049 2.23065,2.9218 2.23493,2.93901 2.23891,2.95654 2.24256,2.97439 2.24591,2.99257 2.24894,3.01105 2.22961,3.03046 2.22655,3.01178 2.22317,2.99342 2.21948,2.97539 2.21547,2.95769 2.21114,2.94031 2.2065,2.92324 2.20154,2.9065 2.19625,2.89007 2.19066,2.87397 2.18475,2.85818 2.17852,2.8427 2.17195,2.82754 2.16508,2.81269 2.15789,2.79814 2.15038,2.78392 2.14254,2.77 2.13439,2.75638 2.12592,2.74308 2.11712,2.73009 2.108,2.71739 2.09857,2.70499 2.08881,2.69291 2.07872,2.68111 2.06831,2.66963 2.05758,2.65843 2.04652,2.64753 2.03515,2.63694 2.02345,2.62663 2.01142,2.61661 1.99906,2.6069 1.98639,2.59747 "/>
    <polygon id="_314394992" class="fil33" points="1.65791,3.57108 1.68291,3.54631 1.70444,3.54563 1.7258,3.54374 1.74696,3.54067 1.76785,3.53645 1.78848,3.5311 1.80879,3.52467 1.82877,3.51717 1.84836,3.50864 1.86754,3.4991 1.88629,3.4886 1.90455,3.47714 1.92232,3.46477 1.93953,3.45152 1.95617,3.43741 1.9722,3.42248 1.98759,3.40674 1.96565,3.43013 1.9501,3.44601 1.93391,3.46109 1.9171,3.47535 1.89972,3.48873 1.88177,3.50123 1.86333,3.5128 1.84439,3.52341 1.82502,3.53304 1.80523,3.54166 1.78505,3.54923 1.76454,3.55573 1.7437,3.56113 1.7226,3.56539 1.70123,3.56849 1.67966,3.57039 "/>
    <polygon id="_316353768" class="fil33" points="1.83897,3.13645 1.86218,3.116 1.86036,3.13181 1.85856,3.14761 1.85675,3.16341 1.85494,3.17922 1.85313,3.19502 1.85133,3.21082 1.84952,3.22662 1.84771,3.24243 1.84591,3.25822 1.8441,3.27403 1.84229,3.28982 1.84048,3.30562 1.83868,3.32142 1.83686,3.33723 1.83506,3.35302 1.83326,3.36881 1.80976,3.39181 1.81158,3.37586 1.8134,3.3599 1.81523,3.34393 1.81706,3.32798 1.81889,3.31203 1.82071,3.29606 1.82254,3.28011 1.82436,3.26415 1.82619,3.24818 1.82801,3.23222 1.82983,3.21627 1.83166,3.2003 1.83348,3.18434 1.83532,3.16838 1.83714,3.15241 "/>
    <polygon id="_316353120" class="fil33" points="1.56094,3.23547 1.58691,3.21405 1.58521,3.22801 1.58352,3.24197 1.58186,3.25593 1.58021,3.26991 1.57858,3.28387 1.57696,3.29784 1.57537,3.31182 1.57379,3.32579 1.57221,3.33977 1.57064,3.35374 1.56909,3.36771 1.56754,3.38169 1.566,3.39567 1.56446,3.40964 1.56293,3.42362 1.56139,3.43759 1.55986,3.45157 1.55832,3.46554 1.55678,3.47951 1.55524,3.49349 1.55369,3.50747 1.55214,3.52143 1.55057,3.53541 1.549,3.54938 1.54741,3.56334 1.54582,3.57731 1.5442,3.59128 1.54257,3.60523 1.54093,3.61919 1.53927,3.63315 1.53758,3.6471 1.53588,3.66105 1.5094,3.68698 1.51112,3.67288 1.51282,3.6588 1.5145,3.6447 1.51616,3.63059 1.51781,3.61649 1.51944,3.60239 1.52105,3.58828 1.52265,3.57417 1.52424,3.56007 1.52582,3.54596 1.52739,3.53184 1.52896,3.51773 1.53051,3.50361 1.53207,3.48951 1.53362,3.47538 1.53517,3.46127 1.53672,3.44716 1.53827,3.43303 1.53982,3.41892 1.54138,3.40481 1.54295,3.39068 1.54451,3.37657 1.5461,3.36245 1.54769,3.34833 1.54929,3.33423 1.55089,3.32012 1.55253,3.306 1.55418,3.2919 1.55584,3.27779 1.55752,3.26367 1.55922,3.24958 "/>
    <polygon id="_316353216" class="fil33" points="1.11433,3.35055 1.14474,3.32798 1.16999,3.3097 1.19577,3.29184 1.22208,3.27444 1.24896,3.25751 1.2764,3.24106 1.3044,3.22511 1.33296,3.20968 1.3621,3.19478 1.39182,3.18043 1.42214,3.16666 1.45304,3.15345 1.48455,3.14087 1.51666,3.12888 1.54941,3.11754 1.58276,3.10686 1.61675,3.09683 1.65137,3.08749 1.68663,3.07886 1.72254,3.07093 1.75911,3.06375 1.79634,3.05732 1.83424,3.05165 1.87282,3.04677 1.91206,3.04269 1.95201,3.03943 1.99264,3.03701 2.03398,3.03543 2.07603,3.03472 2.11879,3.03491 2.16226,3.03598 2.20648,3.03799 2.25142,3.04093 2.23212,3.06063 2.18673,3.05767 2.14207,3.05564 2.09816,3.05454 2.05496,3.05437 2.01249,3.05508 1.97074,3.05666 1.9297,3.05912 1.88935,3.06241 1.84971,3.06652 1.81075,3.07146 1.77246,3.07717 1.73487,3.08367 1.69793,3.09092 1.66166,3.09893 1.62604,3.10765 1.59107,3.11708 1.55674,3.1272 1.52305,3.138 1.48998,3.14946 1.45755,3.16156 1.42572,3.17427 1.39451,3.1876 1.36389,3.20152 1.33387,3.21601 1.30443,3.23106 1.27559,3.24664 1.24731,3.26276 1.2196,3.27936 1.19245,3.29647 1.16588,3.31405 1.13983,3.33208 "/>
    <polygon id="_316353288" class="fil33" points="2.23381,3.08075 2.25309,3.06084 2.25122,3.09647 2.24787,3.13115 2.24308,3.16486 2.23688,3.19763 2.22932,3.2294 2.22045,3.26018 2.2103,3.28996 2.19892,3.31872 2.18636,3.34646 2.17266,3.37316 2.15785,3.39883 2.14198,3.42342 2.1251,3.44694 2.10724,3.4694 2.0865,3.49341 2.10453,3.47073 2.12159,3.44698 2.13761,3.42213 2.15257,3.39621 2.16642,3.36923 2.1791,3.34122 2.1906,3.31216 2.20084,3.28209 2.2098,3.25099 2.21744,3.2189 2.2237,3.18582 2.22854,3.15177 2.23192,3.11673 "/>
    <polygon id="_316353408" class="fil33" points="2.23212,3.06063 2.25142,3.04093 2.25438,3.0413 2.2614,3.04226 2.27192,3.04367 2.28534,3.0455 2.30109,3.04766 2.31861,3.05007 2.3373,3.05266 2.35658,3.05535 2.3759,3.05805 2.39465,3.06071 2.41227,3.06326 2.42816,3.06559 2.44177,3.06766 2.45252,3.06936 2.4598,3.07063 2.46307,3.0714 2.4459,3.09141 2.4426,3.09064 2.43524,3.08935 2.42439,3.08763 2.41064,3.08555 2.39459,3.0832 2.37679,3.08062 2.35785,3.07793 2.33834,3.07519 2.31886,3.07248 2.29998,3.06986 2.2823,3.06743 2.26638,3.06525 2.25283,3.0634 2.2422,3.06197 2.23511,3.06102 "/>
    <polygon id="_316353576" class="fil33" points="1.28495,3.38833 1.31366,3.36538 1.31995,3.35935 1.32659,3.35351 1.33359,3.34784 1.30507,3.37062 1.29801,3.37633 1.2913,3.38223 "/>
    <polygon id="_316339104" class="fil33" points="1.39739,3.50088 1.42499,3.47681 1.41459,3.47004 1.4047,3.46324 1.39529,3.45643 1.38636,3.44959 1.37789,3.44272 1.3699,3.43581 1.36236,3.4289 1.35526,3.42195 1.3486,3.41498 1.34238,3.40798 1.33658,3.40095 1.3312,3.3939 1.32621,3.38682 1.32164,3.3797 1.31746,3.37256 1.31366,3.36538 1.28495,3.38833 1.28879,3.39557 1.29301,3.40278 1.29763,3.40998 1.30266,3.41713 1.3081,3.42426 1.31396,3.43135 1.32024,3.43842 1.32697,3.44547 1.33413,3.45248 1.34175,3.45947 1.34983,3.46644 1.35838,3.47338 1.3674,3.48028 1.3769,3.48717 1.3869,3.49403 "/>
    <polygon id="_316351848" class="fil33" points="1.58426,3.03121 1.61001,3.01181 1.61198,2.99455 1.61395,2.97729 1.61591,2.96002 1.61789,2.94276 1.61986,2.9255 1.62183,2.90824 1.6238,2.89096 1.62577,2.87371 1.62774,2.85644 1.62972,2.83917 1.63169,2.8219 1.63366,2.80464 1.63563,2.78737 1.6376,2.7701 1.63958,2.75283 1.64155,2.73556 1.61611,2.75218 1.61412,2.76962 1.61212,2.78706 1.61014,2.80451 1.60815,2.82195 1.60616,2.83938 1.60417,2.85683 1.60217,2.87428 1.60018,2.89172 1.59819,2.90915 1.5962,2.92659 1.59421,2.94403 1.59223,2.96146 1.59023,2.9789 1.58824,2.99634 1.58625,3.01376 "/>
    <polygon id="_317724336" class="fil33" points="1.61611,2.75218 1.64155,2.73556 1.63186,2.73654 1.62235,2.73778 1.61301,2.73928 1.60381,2.74102 1.59479,2.74299 1.5859,2.7452 1.57716,2.74764 1.56856,2.7503 1.56012,2.75317 1.55179,2.75626 1.54362,2.75954 1.53557,2.76303 1.52764,2.76672 1.51983,2.77058 1.51215,2.77462 1.50459,2.77884 1.47779,2.79589 1.48542,2.79162 1.49318,2.78754 1.50106,2.78364 1.50907,2.77992 1.5172,2.7764 1.52546,2.77307 1.53387,2.76997 1.54239,2.76706 1.55108,2.76438 1.55991,2.7619 1.56888,2.75967 1.578,2.75769 1.58729,2.75594 1.59673,2.75443 1.60633,2.75317 "/>
    <polygon id="_317724480" class="fil33" points="1.8538,3.00676 1.87687,2.9876 1.87855,2.97333 1.88025,2.95908 1.88194,2.94485 1.88362,2.93064 1.88531,2.91644 1.88699,2.90227 1.88868,2.8881 1.89035,2.87395 1.89205,2.8598 1.89372,2.84567 1.89539,2.83154 1.89707,2.81743 1.89874,2.80332 1.90043,2.78921 1.9021,2.7751 1.90378,2.761 1.90544,2.74689 1.90712,2.73278 1.9088,2.71868 1.91048,2.70456 1.91215,2.69044 1.91383,2.67631 1.9155,2.66217 1.91719,2.64802 1.91887,2.63387 1.92056,2.6197 1.92224,2.60551 1.92393,2.5913 1.92561,2.57708 1.92731,2.56285 1.929,2.54858 1.93069,2.5343 1.90816,2.5489 1.90646,2.56332 1.90474,2.57773 1.90303,2.59211 1.90133,2.60647 1.89963,2.62083 1.89793,2.63515 1.89622,2.64947 1.89452,2.66377 1.89282,2.67806 1.89113,2.69234 1.88944,2.70661 1.88775,2.72087 1.88605,2.73512 1.88435,2.74938 1.88266,2.76363 1.88098,2.77788 1.87929,2.79212 1.8776,2.80637 1.8759,2.82062 1.87421,2.83487 1.87251,2.84913 1.87082,2.8634 1.86913,2.87768 1.86742,2.89196 1.86573,2.90625 1.86403,2.92056 1.86233,2.93489 1.86063,2.94923 1.85893,2.96358 1.85722,2.97795 1.8555,2.99235 "/>
    <polygon id="_317724288" class="fil33" points="1.90816,2.5489 1.93069,2.5343 1.92317,2.53022 1.91564,2.52628 1.90807,2.52248 1.90046,2.51882 1.89281,2.51533 1.88513,2.51198 1.8774,2.50882 1.86964,2.5058 1.86183,2.50297 1.85398,2.50031 1.84607,2.49782 1.83813,2.49553 1.83013,2.49343 1.82207,2.49153 1.81397,2.48982 1.8058,2.48831 1.78201,2.50244 1.79026,2.50396 1.79844,2.50569 1.80658,2.50762 1.81466,2.50974 1.82268,2.51206 1.83067,2.51455 1.83861,2.51725 1.8465,2.52011 1.85434,2.52315 1.86214,2.52636 1.8699,2.52973 1.87763,2.53327 1.88531,2.53695 1.89296,2.5408 1.90057,2.54477 "/>
   </g>
   <path id="_314400128" class="fil33" d="M1.62788 2.61413l0.00093 -0.00811 0.00093 -0.0081 0.00093 -0.00812 0.00092 -0.0081 0.00093 -0.00811 0.00092 -0.00812 0.00093 -0.00811 0.00092 -0.00811 0.00092 -0.00811 0.00093 -0.00811 0.00093 -0.00811 0.00093 -0.00811 0.00092 -0.00811 0.00093 -0.00811 0.00092 -0.00811 0.00093 -0.00811 -0.04384 0.00271 -0.04199 0.00528 -0.04015 0.00774 -0.03835 0.01007 -0.03654 0.01226 -0.03477 0.01434 -0.03302 0.01629 -0.03127 0.01811 -0.02954 0.01978 -0.02784 0.02137 -0.02614 0.02277 -0.02448 0.02408 -0.02281 0.02526 -0.02118 0.02631 -0.01957 0.02724 -0.01795 0.02803 -0.01637 0.02868 -0.0148 0.02922 -0.01326 0.02963 -0.01171 0.02991 -0.0102 0.03009 -0.00871 0.03009 -0.00722 0.03 -0.00576 0.02978 -0.00432 0.02941 -0.00288 0.02894 -0.00147 0.02832 -8e-005 0.02758 0.0013 0.02673 0.00267 0.02574 0.004 0.02459 0.00534 0.02337 0.00764 -0.00384 0.00764 -0.00383 0.00764 -0.00383 0.00763 -0.00384 0.00765 -0.00382 0.00763 -0.00384 0.00765 -0.00383 0.00763 -0.00383 0.00764 -0.00384 0.00765 -0.00384 0.00764 -0.00383 0.00765 -0.00383 0.00763 -0.00384 0.00765 -0.00383 0.00763 -0.00384 0.00765 -0.00383 -0.00245 -0.02126 -0.00133 -0.02162 -0.00023 -0.02192 0.00086 -0.02215 0.00196 -0.02234 0.00304 -0.02244 0.00411 -0.02248 0.00517 -0.02247 0.00624 -0.02236 0.0073 -0.02224 0.00833 -0.02202 0.00936 -0.02174 0.01041 -0.02141 0.01142 -0.02099 0.01244 -0.02053 0.01344 -0.01998 0.01444 -0.0194 0.01544 -0.01873 0.01641 -0.018 0.01739 -0.01721 0.01837 -0.01635 0.01932 -0.01544 0.02028 -0.01445 0.02121 -0.0134 0.02217 -0.01229 0.02308 -0.0111 0.02402 -0.00987 0.02493 -0.00855 0.02584 -0.0072 0.02673 -0.00575 0.02763 -0.00424 0.02851 -0.00269zm0.32772 0.12956l0.00111 -0.0096 0.0011 -0.00965 0.0011 -0.00969 0.00111 -0.00971 0.00112 -0.00974 0.00112 -0.00976 0.00112 -0.00976 0.00112 -0.00976 0.00111 -0.00978 0.00111 -0.00976 0.00112 -0.00976 0.00112 -0.00974 0.00111 -0.00971 0.00111 -0.00969 0.00111 -0.00965 0.0011 -0.00961 0.013 0.00915 0.01267 0.00943 0.01236 0.00971 0.01203 0.01002 0.0117 0.01031 0.01137 0.01059 0.01106 0.0109 0.01073 0.0112 0.01041 0.01148 0.01009 0.0118 0.00976 0.01208 0.00943 0.0124 0.00912 0.0127 0.0088 0.01299 0.00847 0.0133 0.00815 0.01362 0.00784 0.01392 0.00751 0.01422 0.00719 0.01455 0.00687 0.01485 0.00657 0.01516 0.00623 0.01548 0.00591 0.01579 0.00559 0.0161 0.00529 0.01643 0.00496 0.01674 0.00464 0.01707 0.00433 0.01738 0.00401 0.0177 0.00369 0.01803 0.00338 0.01836 0.00306 0.01868 -0.00813 -0.00095 -0.00818 -0.00094 -0.00822 -0.00097 -0.00826 -0.00095 -0.0083 -0.00097 -0.00831 -0.00096 -0.00836 -0.00097 -0.00837 -0.00097 -0.0084 -0.00097 -0.00843 -0.00099 -0.00843 -0.00098 -0.00846 -0.00097 -0.00845 -0.00098 -0.00848 -0.00099 -0.00847 -0.00098 -0.00849 -0.00098 -0.00429 -0.02159 -0.00511 -0.02126 -0.00588 -0.02086 -0.00661 -0.02041 -0.0073 -0.01989 -0.00791 -0.01931 -0.0085 -0.01868 -0.00904 -0.01797 -0.00952 -0.01722 -0.00995 -0.01639 -0.01034 -0.01552 -0.01069 -0.01456 -0.01097 -0.01356 -0.01121 -0.01249 -0.0114 -0.01136 -0.01155 -0.01018zm-0.31272 0.95889l0.00093 -0.00812 0.00093 -0.00815 0.00094 -0.00819 0.00094 -0.00823 0.00093 -0.00825 0.00095 -0.00826 0.00095 -0.00828 0.00095 -0.00827 0.00094 -0.00828 0.00094 -0.00827 0.00095 -0.00826 0.00094 -0.00824 0.00094 -0.00823 0.00094 -0.00819 0.00093 -0.00816 0.00093 -0.00812 0.02175 -0.00069 0.02157 -0.0019 0.02137 -0.0031 0.0211 -0.00426 0.02084 -0.0054 0.02051 -0.0065 0.02018 -0.00757 0.01979 -0.00862 0.01937 -0.00963 0.01894 -0.01061 0.01844 -0.01157 0.01795 -0.0125 0.01738 -0.01338 0.01681 -0.01426 0.01619 -0.01508 0.01555 -0.01588 0.01486 -0.01666 0.01416 -0.01741 0.01341 -0.01811 0.01262 -0.01882 0.01181 -0.01946 0.01096 -0.02009 0.01008 -0.02067 0.00916 -0.02125 0.00823 -0.02177 0.00723 -0.02229 0.00623 -0.02275 0.00516 -0.02321 0.0041 -0.02361 0.00297 -0.024 0.00183 -0.02435 0.00065 -0.02468 -0.01631 0.00158 -0.01645 0.00179 -0.01654 0.00199 -0.01662 0.00217 -0.01666 0.00236 -0.01668 0.00253 -0.01667 0.00269 -0.0166 0.00286 -0.01654 0.003 -0.01642 0.00314 -0.0163 0.00328 -0.01612 0.0034 -0.01594 0.0035 -0.01569 0.00362 -0.01545 0.00373 -0.01515 0.00381 -0.00183 0.01596 -0.00182 0.01597 -0.00184 0.01596 -0.00182 0.01596 -0.00183 0.01597 -0.00182 0.01595 -0.00182 0.01596 -0.00183 0.01597 -0.00182 0.01596 -0.00183 0.01595 -0.00182 0.01597 -0.00183 0.01595 -0.00183 0.01595 -0.00183 0.01597 -0.00182 0.01596 -0.00182 0.01595 -0.00974 0.00569 -0.00961 0.00535 -0.00949 0.00503 -0.00935 0.00465 -0.00923 0.00429 -0.00908 0.00391 -0.00893 0.00353 -0.00879 0.00316 -0.00865 0.00274 -0.00847 0.00233 -0.00831 0.00192 -0.00815 0.00148 -0.00795 0.00103 -0.0078 0.00061 -0.0076 0.00013 -0.00741 -0.00031 0.00185 -0.01603 0.00191 -0.01613 0.00194 -0.01622 0.002 -0.01632 0.00202 -0.01639 0.00205 -0.01643 0.00207 -0.01647 0.00206 -0.01647 0.00207 -0.01649 0.00206 -0.01647 0.00205 -0.01644 0.00202 -0.01638 0.00199 -0.01633 0.00195 -0.01624 0.00191 -0.01613 0.00185 -0.01602 -0.00888 0.00368 -0.00887 0.0037 -0.00888 0.00369 -0.00889 0.00369 -0.00888 0.0037 -0.00887 0.00369 -0.00888 0.0037 -0.00889 0.00369 -0.00887 0.0037 -0.00888 0.00369 -0.00887 0.0037 -0.00888 0.00368 -0.0089 0.0037 -0.00887 0.00369 -0.00888 0.00369 -0.00887 0.00369 -0.00172 0.01411 -0.0017 0.01409 -0.00168 0.01412 -0.00166 0.01411 -0.00165 0.0141 -0.00164 0.01412 -0.0016 0.01411 -0.0016 0.0141 -0.00159 0.01412 -0.00159 0.01412 -0.00156 0.01411 -0.00157 0.01413 -0.00156 0.01411 -0.00155 0.01411 -0.00155 0.01413 -0.00155 0.01411 -0.00155 0.01411 -0.00155 0.01413 -0.00156 0.0141 -0.00155 0.01412 -0.00157 0.01411 -0.00157 0.01412 -0.00158 0.01411 -0.00159 0.0141 -0.0016 0.01411 -0.00161 0.01411 -0.00163 0.0141 -0.00165 0.0141 -0.00166 0.01411 -0.00168 0.0141 -0.0017 0.01408 -0.00172 0.0141 -0.01893 -0.00542 -0.01849 -0.00582 -0.01803 -0.00619 -0.01757 -0.00658 -0.01714 -0.00693 -0.01668 -0.00732 -0.01624 -0.00766 -0.0158 -0.00803 -0.01539 -0.00837 -0.01494 -0.00871 -0.01451 -0.00904 -0.01408 -0.00938 -0.01367 -0.00968 -0.01324 -0.01002 -0.01283 -0.01032 -0.01242 -0.01063 -0.01201 -0.01093 -0.0116 -0.0112 -0.0112 -0.0115 -0.01079 -0.01178 -0.0104 -0.01205 -0.01001 -0.01233 -0.00962 -0.01257 -0.00923 -0.01284 -0.00884 -0.01309 -0.00846 -0.01333 -0.00809 -0.01356 -0.00771 -0.01379 -0.00734 -0.01403 -0.00696 -0.01423 -0.0066 -0.01445 -0.00625 -0.01465 0.0255 -0.01847 0.02605 -0.01803 0.02657 -0.01758 0.02715 -0.01711 0.02771 -0.0166 0.02828 -0.01612 0.02884 -0.01558 0.02944 -0.01505 0.03002 -0.01449 0.03062 -0.01392 0.03121 -0.01333 0.03183 -0.01271 0.03243 -0.0121 0.03307 -0.01146 0.03369 -0.0108 0.03433 -0.01012 0.03497 -0.00943 0.03562 -0.00872 0.03627 -0.00801 0.03694 -0.00725 0.03759 -0.0065 0.03829 -0.00571 0.03896 -0.00494 0.03964 -0.00411 0.04035 -0.00329 0.04104 -0.00246 0.04175 -0.00158 0.04247 -0.00071 0.0432 0.00017 0.04391 0.0011 0.04466 0.00203 0.04539 0.00296 0.00299 0.00039 0.00709 0.00095 0.01063 0.00143 0.01355 0.00185 0.01592 0.00218 0.01768 0.00243 0.01888 0.00262 0.01948 0.00271 0.01951 0.00274 0.01894 0.00269 0.0178 0.00258 0.01605 0.00235 0.01375 0.00208 0.01085 0.00172 0.00736 0.00129 0.0033 0.00077 -0.00349 -0.0004 -0.00744 -0.00064 -0.01082 -0.00084 -0.01365 -0.00099 -0.01589 -0.00109 -0.01756 -0.00115 -0.01868 -0.00117 -0.01923 -0.00115 -0.0192 -0.00109 -0.01862 -0.00098 -0.01746 -0.00082 -0.01574 -0.00063 -0.01344 -0.00039 -0.01058 -0.00011 -0.00713 0.00021 -0.00316 0.00058 -0.00189 0.03598 -0.00338 0.03504 -0.00484 0.03405 -0.00626 0.03308 -0.00764 0.03209 -0.00896 0.0311 -0.01024 0.03007 -0.0115 0.02906 -0.01268 0.02801 -0.01385 0.02698 -0.01496 0.02592 -0.01602 0.02485 -0.01706 0.02375 -0.01803 0.02268 -0.01898 0.02158 -0.01988 0.02046 -0.02073 0.01934 -0.02153 0.01821 -0.0223 0.01706 -0.02305 0.0159 -0.0237 0.01473 -0.02435 0.01355 -0.02495 0.01238 -0.02549 0.01117 -0.02601 0.00994 -0.02646 0.00874 -0.02689 0.0075 -0.02728 0.00625 -0.0276 0.005 -0.02791 0.00373 -0.02815 0.00246 -0.02836 0.00117zm-0.35793 -0.31425l0.00635 -0.0061 0.00671 -0.0059 0.00706 -0.00571 0.00739 -0.00556 0.00769 -0.00541 0.00799 -0.00527 0.00825 -0.00514 0.00851 -0.00503 0.00873 -0.00493 0.00894 -0.00484 0.00912 -0.00476 0.00931 -0.00469 0.00945 -0.00466 0.00959 -0.00461 0.00971 -0.00459 0.0098 -0.00459 -0.02216 0.19434 -0.01049 -0.00685 -0.01 -0.00686 -0.0095 -0.00689 -0.00902 -0.0069 -0.00855 -0.00694 -0.00808 -0.00697 -0.00762 -0.00699 -0.00716 -0.00701 -0.00673 -0.00705 -0.00628 -0.00707 -0.00586 -0.00709 -0.00544 -0.00713 -0.00503 -0.00715 -0.00462 -0.0072 -0.00422 -0.00721 -0.00384 -0.00724zm0.19284 -0.59244l-0.00193 0.01682 -0.00192 0.01683 -0.00191 0.01682 -0.00192 0.01682 -0.00191 0.01682 -0.00193 0.01683 -0.00192 0.01683 -0.00191 0.01681 -0.00192 0.01682 -0.00192 0.01683 -0.00192 0.01681 -0.00192 0.01682 -0.00191 0.01683 -0.00192 0.0168 -0.00192 0.01682 -0.00192 0.01683 0.00832 -0.00221 0.00837 -0.00221 0.00838 -0.00219 0.00841 -0.00217 0.00843 -0.00217 0.00849 -0.00215 0.0085 -0.00214 0.00853 -0.00213 0.00859 -0.0021 0.00861 -0.0021 0.00866 -0.00209 0.00868 -0.00207 0.00875 -0.00205 0.00877 -0.00202 0.00882 -0.00202 0.00886 -0.002 0.00199 -0.01745 0.00199 -0.01742 0.00199 -0.01744 0.002 -0.01744 0.00198 -0.01743 0.00199 -0.01744 0.00199 -0.01744 0.00199 -0.01743 0.00199 -0.01744 0.002 -0.01745 0.00199 -0.01745 0.00199 -0.01743 0.00199 -0.01744 0.00198 -0.01745 0.002 -0.01744 0.00199 -0.01744 -0.00978 0.00099 -0.0096 0.00126 -0.00944 0.00151 -0.00929 0.00175 -0.00912 0.00198 -0.00897 0.00223 -0.00883 0.00248 -0.00869 0.00268 -0.00852 0.00291 -0.00841 0.0031 -0.00826 0.00333 -0.00813 0.00352 -0.00801 0.00372 -0.00788 0.0039 -0.00776 0.00408 -0.00763 0.00427zm0.30422 -0.29345l-0.06059 0.51284 0.00819 -0.00086 0.0082 -0.00081 0.00821 -0.00078 0.00823 -0.00074 0.00824 -0.00069 0.00826 -0.00065 0.00825 -0.00061 0.00828 -0.00055 0.00829 -0.00052 0.00828 -0.00046 0.0083 -0.00042 0.00831 -0.00038 0.00833 -0.00033 0.00833 -0.00029 0.00833 -0.00024 0.00835 -0.00019 0.0017 -0.01441 0.00172 -0.0144 0.00171 -0.01437 0.0017 -0.01435 0.0017 -0.01434 0.0017 -0.01433 0.0017 -0.01431 0.00169 -0.01429 0.00171 -0.01428 0.00169 -0.01428 0.00169 -0.01427 0.0017 -0.01426 0.00169 -0.01425 0.0017 -0.01425 0.00169 -0.01425 0.00169 -0.01424 0.00168 -0.01425 0.00169 -0.01425 0.0017 -0.01426 0.0017 -0.01425 0.00169 -0.01426 0.00169 -0.01427 0.00169 -0.01428 0.0017 -0.01429 0.0017 -0.0143 0.00171 -0.01432 0.0017 -0.01432 0.0017 -0.01436 0.0017 -0.01436 0.00171 -0.01438 0.00172 -0.01441 0.0017 -0.01442 -0.00759 -0.00413 -0.00761 -0.00397 -0.00765 -0.00385 -0.00768 -0.00368 -0.00773 -0.00354 -0.00776 -0.00337 -0.0078 -0.00321 -0.00784 -0.00304 -0.00789 -0.00286 -0.00794 -0.0027 -0.00799 -0.00249 -0.00802 -0.00232 -0.00808 -0.00212 -0.00814 -0.00193 -0.00818 -0.00173 -0.00825 -0.00152z"/>
  </g>
 </g>
</svg>
