<?xml version="1.0" encoding="UTF-8"?>
<!DOCTYPE svg PUBLIC "-//W3C//DTD SVG 1.1//EN" "http://www.w3.org/Graphics/SVG/1.1/DTD/svg11.dtd">
<!-- Creator: CorelDRAW -->
<svg xmlns="http://www.w3.org/2000/svg" xml:space="preserve" width="7.62cm" height="7.62cm" style="shape-rendering:geometricPrecision; text-rendering:geometricPrecision; image-rendering:optimizeQuality; fill-rule:evenodd; clip-rule:evenodd"
viewBox="0 0 7.62 7.62"
 xmlns:xlink="http://www.w3.org/1999/xlink">
 <defs>
  <style type="text/css">
   <![CDATA[
    .fil1 {fill:none}
    .fil2 {fill:#414041;fill-rule:nonzero}
    .fil0 {fill:url(#id0)}
   ]]>
  </style>
  <linearGradient id="id0" gradientUnits="userSpaceOnUse" x1="7.72495" y1="3.60266" x2="0.52157" y2="5.17706">
   <stop offset="0" style="stop-color:#009AFF"/>
   <stop offset="0.321569" style="stop-color:#57AAC8"/>
   <stop offset="1" style="stop-color:#AFBA90"/>
  </linearGradient>
 </defs>
 <g id="Camada_x0020_1">
  <metadata id="CorelCorpID_0Corel-Layer"/>
  <g id="_363989568">
   <path id="_367005088" class="fil0" d="M1.38259 4.97108c0.16107,-0.08991 0.34607,-0.1858 0.50713,-0.2757 -0.16762,-0.89725 0.41969,-2.12246 1.65363,-2.26461l-0.0016 0.28718 0.05195 0.00569 0.02914 -0.80827c-1.79529,0.07481 -2.61201,1.81585 -2.24025,3.05571zm2.42136 1.80224l0.00089 -0.82338 0.04603 0.00486 -0.00333 0.3268c0.93655,-0.04906 1.73306,-0.9506 1.68891,-2.01544 -0.34739,0.04735 -0.72148,0.13281 -1.04041,0.23018 -0.02449,0.34495 -0.04897,0.68991 -0.07346,1.03486 -0.20516,0.13552 -0.39293,0.21383 -0.55087,0.20891 0.02448,-0.34494 0.05863,-0.71324 0.08312,-1.05818 -0.1876,0.08803 -0.37518,0.17607 -0.56279,0.26408 -0.04862,0.60993 -0.11312,1.18006 -0.16176,1.78998 -0.83201,-0.21831 -1.33044,-0.6626 -1.6331,-1.23686 1.49247,-1.20991 3.17078,-1.46354 5.02804,-1.35573 -0.11257,0.00802 -0.52799,0.0395 -0.54807,0.05711 0.13003,1.0886 -0.75515,2.52573 -2.2732,2.57281zm1.09455 -3.77656c-0.02713,0.3821 -0.05085,0.71644 -0.06668,0.93932 0.22979,-0.02833 0.36154,-0.01143 0.58278,0.01737 0.03347,-0.14241 -0.31461,-0.74233 -0.5161,-0.95669zm-0.00062 -0.10401c0.01469,-0.20697 0.02662,-0.41962 0.04131,-0.62659 0.58238,0.36137 0.96197,0.92243 1.12182,1.72647 -0.17512,-0.01242 -0.36776,-0.01937 -0.55087,-0.03236 -0.1031,-0.46335 -0.35404,-0.87319 -0.61226,-1.06752zm-2.59324 2.72011c0.12694,-0.13918 0.32164,-0.24646 0.5292,-0.35449l-0.05593 0.78809c-0.23765,-0.13648 -0.38815,-0.28084 -0.47327,-0.4336zm0.6761 -2.42416c-0.0258,0.36353 -0.0516,0.72705 -0.07741,1.09057 0.17684,-0.05567 0.35817,-0.10977 0.54747,-0.16115 0.02675,-0.37679 0.05349,-0.75357 0.08024,-1.13038 -0.21117,0.0279 -0.39113,0.10025 -0.5503,0.20096zm1.17715 -1.21927l-0.15673 2.05975c0.17513,-0.02687 0.35282,-0.04658 0.53218,-0.05823 0.04691,-0.62338 0.08505,-1.21683 0.13196,-1.84021 -0.16653,-0.08292 -0.32825,-0.13873 -0.50741,-0.16131z"/>
   <path id="_367005016" class="fil1" d="M6.10442 4.18425c0.07276,0.99508 -0.46348,1.92593 -1.35198,2.34692 -1.19444,0.56595 -2.62934,0.03992 -3.20496,-1.17491 -0.57561,-1.21484 -0.07396,-2.65844 1.12049,-3.22439 1.19444,-0.56595 2.62934,-0.03993 3.20496,1.17491 0.10144,0.21409 0.1716,0.44159 0.20827,0.67531"/>
   <path id="_367005304" class="fil2" d="M1.16832 3.48065m-0.25451 -0.32672c-0.04352,0.01641 -0.0797,0.02542 -0.10862,0.02724 -0.02866,0.00173 -0.05659,-0.00346 -0.08326,-0.01535 -0.04017,-0.01787 -0.07256,-0.047 -0.09728,-0.08718 -0.02446,-0.04027 -0.0379,-0.08566 -0.0404,-0.13597 -0.00245,-0.05051 0.00669,-0.09926 0.02774,-0.14654 0.02382,-0.05351 0.05331,-0.08957 0.08834,-0.10847 0.03504,-0.01891 0.07274,-0.01938 0.11344,-0.00127 0.01938,0.00863 0.03716,0.02274 0.05347,0.04256 0.01621,0.01957 0.02917,0.04259 0.03908,0.06916 0.0069,0.01798 0.01109,0.0339 0.01275,0.04741 0.00174,0.01378 0.00099,0.02409 -0.00225,0.03138 -0.00404,0.00906 -0.01303,0.0106 -0.02707,0.00434 0.00035,0.00016 -0.00466,-0.00292 -0.01505,-0.00926 -0.01541,-0.00941 -0.02951,-0.01696 -0.0423,-0.02266 -0.01814,-0.00808 -0.03745,-0.01348 -0.05821,-0.01612 -0.02051,-0.00274 -0.03888,-0.00261 -0.05495,0.00046 -0.01623,0.00299 -0.02584,0.0083 -0.02924,0.01594 -0.00174,0.00391 -0.0008,0.00944 0.00293,0.01685 0.00558,0.01378 0.01442,0.02644 0.02653,0.03801 0.01202,0.01174 0.02442,0.02026 0.03686,0.02579 0.01564,0.00697 0.03099,0.01123 0.04656,0.01263 0.01531,0.00149 0.03248,-0.00023 0.05132,-0.00526 0.01878,-0.00484 0.04063,-0.01279 0.0654,-0.02392 0.03946,-0.01736 0.07254,-0.02946 0.09931,-0.0365 0.02678,-0.00704 0.05164,-0.0098 0.07462,-0.0083 0.0228,0.00141 0.04571,0.00735 0.06864,0.01756 0.04017,0.01788 0.07444,0.0457 0.10252,0.08355 0.02801,0.03803 0.0458,0.07939 0.05331,0.12469 0.0076,0.04513 0.00317,0.08619 -0.01337,0.12333 -0.01582,0.03556 -0.03883,0.06663 -0.06906,0.09342 -0.03034,0.02696 -0.06628,0.04887 -0.10786,0.06572 -0.04375,0.01693 -0.0774,0.02027 -0.1005,0.00999 -0.01422,-0.00634 -0.02525,-0.01935 -0.03275,-0.03887 -0.00768,-0.02004 -0.01182,-0.04231 -0.01258,-0.06694 -0.00068,-0.02479 0.00212,-0.044 0.0083,-0.05786 0.00356,-0.00799 0.00853,-0.01389 0.01506,-0.01757 0.00637,-0.00377 0.01534,-0.00574 0.02691,-0.00591 0.01149,1e-005 0.0262,0.00144 0.04445,0.00446 0.02621,0.00379 0.04614,0.00543 0.05998,0.00497 0.01365,-0.00052 0.02832,-0.00336 0.04404,-0.0085 0.0149,-0.00571 0.02513,-0.01436 0.03019,-0.02574 0.00626,-0.01404 0.00557,-0.02734 -0.00188,-0.04025 -0.00728,-0.01282 -0.02066,-0.02346 -0.03967,-0.03193 -0.02986,-0.01329 -0.06439,-0.0161 -0.10367,-0.00824 -0.0129,0.00171 -0.02487,0.00468 -0.03602,0.00866 -0.01114,0.00399 -0.03328,0.01351 -0.06665,0.02868 -0.00981,0.0048 -0.02603,0.01206 -0.04911,0.02181zm0.48449 -0.23333m-0.25607 -0.67882c0.00465,0.03672 0.00993,0.06505 0.01585,0.08497 0.0059,0.01993 0.01713,0.04475 0.03346,0.07504 0.01187,0.0221 0.02621,0.04294 0.04354,0.06216 0.01415,0.01821 0.03505,0.03826 0.06296,0.06005 0.03924,0.03067 0.07478,0.0525 0.10686,0.06548 0.0321,0.01296 0.0605,0.01738 0.08534,0.01307 0.02483,-0.00428 0.04521,-0.01676 0.06138,-0.03747 0.01306,-0.01671 0.02033,-0.03867 0.02173,-0.06574 0.0015,-0.02721 -0.00225,-0.05558 -0.01105,-0.08541 -0.00879,-0.02983 -0.02216,-0.05855 -0.03986,-0.08646 -0.01771,-0.0279 -0.03796,-0.05064 -0.06082,-0.06849 -0.04093,-0.03199 -0.09487,-0.05142 -0.16141,-0.05821 -0.02621,-0.00345 -0.04255,-0.00782 -0.04914,-0.01296 -0.01226,-0.00958 -0.01925,-0.02592 -0.02098,-0.04899 -0.00286,-0.02669 -0.00213,-0.0545 0.00198,-0.08313 0.00399,-0.0285 0.01054,-0.04857 0.01941,-0.05991 0.00514,-0.00659 0.01218,-0.01246 0.0209,-0.01727 0.00896,-0.00484 0.01737,-0.0074 0.02512,-0.00752 0.01736,-0.00199 0.04183,0.00429 0.07327,0.01874 0.03143,0.01443 0.0619,0.03328 0.09149,0.0564 0.07068,0.05523 0.12458,0.12055 0.16174,0.19624 0.03727,0.07554 0.05382,0.15169 0.05009,0.22853 -0.00388,0.07671 -0.02833,0.14403 -0.07349,0.20184 -0.026,0.03327 -0.05788,0.06144 -0.09566,0.08451 -0.03778,0.02308 -0.07491,0.03679 -0.11155,0.04101 -0.06133,0.00739 -0.11982,-0.01065 -0.17548,-0.05415 -0.03234,-0.02527 -0.06178,-0.05839 -0.08814,-0.09923 -0.02637,-0.04084 -0.04821,-0.08557 -0.06531,-0.13447 -0.01709,-0.04892 -0.02849,-0.09881 -0.03448,-0.14992 -0.00573,-0.05113 -0.00514,-0.09833 0.00241,-0.14181 0.00665,-0.03949 0.01817,-0.07889 0.03416,-0.11801 0.01602,-0.03883 0.03363,-0.07052 0.05255,-0.09473 0.02672,-0.0342 0.04522,-0.04715 0.05564,-0.039 0.00415,0.00324 0.00783,0.0118 0.01094,0.02582 0.00196,0.02277 0.00171,0.0411 -0.00078,0.05471 -0.0026,0.01377 -0.00939,0.03414 -0.02034,0.06113 -0.01149,0.02955 -0.01855,0.05217 -0.0211,0.06747 -0.00256,0.01528 -0.00292,0.03723 -0.00123,0.06571zm0.72695 0.09721m-0.16074 -0.57557l-0.00829 -0.03457c-0.03557,0.02349 -0.06241,0.03706 -0.08053,0.04071 -0.01794,0.00354 -0.03232,-0.00207 -0.04281,-0.01705 -0.00848,-0.01212 -0.01207,-0.02741 -0.01072,-0.04618 0.00045,-0.02241 0.0025,-0.04427 0.0065,-0.06536 0.00383,-0.02097 0.00917,-0.03777 0.01589,-0.05055 0.00651,-0.01003 0.01761,-0.02064 0.03355,-0.03181 0.03858,-0.027 0.08381,-0.05535 0.13575,-0.08531 0.0116,-0.00718 0.02135,-0.01328 0.02905,-0.01822 0.00771,-0.00492 0.01602,-0.01002 0.02524,-0.01552 0.02056,-0.01439 0.03385,-0.02323 0.03998,-0.02633 0.00614,-0.00311 0.01417,-0.00589 0.02422,-0.00817 0.0066,-0.00177 0.01312,-0.0023 0.01947,-0.00104 0.01338,0.0025 0.02613,0.01257 0.03841,0.03011 0.02266,0.03234 0.026,0.06089 0.00978,0.08554 -0.00905,0.01489 -0.01828,0.02682 -0.02768,0.03577 -0.00945,0.00923 -0.02712,0.02469 -0.05307,0.04667l0.0667 0.20246c0.02391,-0.01674 0.04307,-0.03111 0.05699,-0.04276 0.00896,-0.00723 0.02308,-0.01759 0.04236,-0.03109 0.02263,-0.01585 0.04041,-0.02473 0.05327,-0.02638 0.01259,-0.00169 0.02313,0.00352 0.03161,0.01564 0.00659,0.00941 0.01161,0.02608 0.01492,0.05013 0.00346,0.02393 0.00351,0.04505 0.00047,0.06309 -0.00148,0.0084 -0.00615,0.01666 -0.01401,0.02477 -0.00796,0.00796 -0.0226,0.01962 -0.04444,0.03492l-0.00653 0.00457 -0.01163 0.00815c-0.02088,0.01462 -0.04397,0.0322 -0.06951,0.05269 0.01911,0.05717 0.03154,0.10239 0.03722,0.13594 0.00573,0.03329 0.00607,0.06464 0.00118,0.09394 -0.0032,0.02054 -0.00932,0.0386 -0.01798,0.0544 -0.00865,0.0158 -0.01874,0.02785 -0.03021,0.03589 -0.01897,0.01328 -0.03918,0.01935 -0.06075,0.01806 -0.02145,-0.00113 -0.03712,-0.00892 -0.04716,-0.02326 -0.01217,-0.01738 -0.03567,-0.08215 -0.07019,-0.19455 -0.03441,-0.11225 -0.06354,-0.21727 -0.08705,-0.3153zm0.62457 0.22741m0.1946 -0.48568l0.0042 0.02484c0.00148,0.00846 0.00279,0.01552 0.00371,0.02167 0.00084,0.00598 0.00175,0.0111 0.0026,0.0156 0.00079,0.00433 0.00163,0.00882 0.00238,0.01357 0.02044,0.11837 0.02879,0.19429 0.0248,0.2277 -0.00189,0.01496 -0.00798,0.03002 -0.01793,0.04544 -0.03189,0.04735 -0.06037,0.07636 -0.08562,0.08709 -0.01756,0.00745 -0.0349,0.00741 -0.05256,-0.00031 -0.0174,-0.00764 -0.03017,-0.02082 -0.03823,-0.0398 -0.01452,-0.0342 -0.02639,-0.104 -0.03546,-0.20901 -0.00333,-0.03325 -0.00597,-0.06235 -0.00765,-0.08722 -0.00167,-0.02486 -0.00294,-0.05327 -0.00377,-0.08506 -0.00098,-0.0317 -0.00119,-0.06607 -0.00077,-0.1024 0.00037,-0.03651 0.00066,-0.06221 0.001,-0.07736 -0.0434,0.02625 -0.08637,0.0485 -0.12918,0.06667 -0.04299,0.01825 -0.07086,0.01232 -0.08363,-0.01777 -0.00813,-0.01917 -0.00458,-0.04962 0.01091,-0.09129 0.0106,-0.02733 0.02253,-0.04803 0.03527,-0.06233 0.01293,-0.01435 0.03085,-0.0264 0.0536,-0.03605 0.01469,-0.00624 0.0349,-0.0144 0.06089,-0.02437 0.02581,-0.0099 0.06211,-0.02299 0.10897,-0.03908l0.01514 -0.00516 0.01476 -0.00456c0.03942,-0.0142 0.06593,-0.02248 0.07924,-0.02498 0.01357,-0.00237 0.02624,-0.00142 0.03843,0.00292 0.01042,0.0051 0.01795,0.01289 0.02244,0.02346 0.00471,0.01111 0.00725,0.02356 0.00789,0.03703 0.00071,0.01364 -0.00101,0.02452 -0.00492,0.03273 -0.00459,0.01358 -0.02581,0.03231 -0.06347,0.05611 -0.00358,0.00152 -0.00702,0.0034 -0.01065,0.00579l-0.00966 0.00663c0.012,0.00485 0.02017,0.01216 0.02451,0.02237 0.00417,0.00985 0.00813,0.03311 0.01222,0.06964 0.00019,0.00942 0.00392,0.03912 0.01111,0.08891l0.00551 0.03487 0.00392 0.02371zm0.61222 0.16844m0.28714 -0.27243l-0.0095 0.03811c-0.00132,0.00844 -0.00383,0.01988 -0.00737,0.03409 -0.01665,0.07276 -0.03108,0.12067 -0.04313,0.1437 -0.00249,0.00481 -0.00699,0.01168 -0.01372,0.02079 -0.02351,0.02364 -0.05303,0.03649 -0.0882,0.03833 -0.02818,0.00148 -0.05104,-0.00355 -0.06877,-0.0149 -0.01776,-0.01154 -0.02713,-0.02683 -0.02815,-0.04626 -0.00073,-0.01399 0.00299,-0.03951 0.01081,-0.07616 0.00802,-0.03686 0.01729,-0.07184 0.02762,-0.1051 -0.02983,-0.0041 -0.04527,-0.01614 -0.0463,-0.03577 -0.00073,-0.01399 0.0031,-0.03016 0.0113,-0.04832 0.0084,-0.01817 0.01924,-0.03452 0.03268,-0.04925 0.01325,-0.01492 0.02637,-0.02476 0.03956,-0.02955 0.00479,-0.01662 0.01386,-0.05158 0.02706,-0.10468 0.03,-0.11536 0.05534,-0.19307 0.07567,-0.2329 0.00844,-0.0135 0.0157,-0.02382 0.02173,-0.03135 0.01865,-0.01967 0.04342,-0.03032 0.07432,-0.03195 0.01884,-0.00098 0.03592,0.00144 0.05084,0.00728 0.01493,0.00584 0.02667,0.01439 0.03505,0.02563 0.00838,0.01106 0.01297,0.02446 0.01379,0.04001 0.00114,0.02175 -0.02131,0.11391 -0.06712,0.27705 -0.00065,0.00257 -0.00161,0.00653 -0.00308,0.01186 -0.00149,0.00516 -0.00279,0.0099 -0.00413,0.01425l-0.00209 0.00459 0.2098 -0.01547 0.00842 -0.0365c0.00962,-0.03927 0.02007,-0.07821 0.03091,-0.11657 0.01103,-0.03857 0.02051,-0.06946 0.02864,-0.09288 0.00813,-0.02341 0.01639,-0.0441 0.025,-0.0621 0.0086,-0.01799 0.01667,-0.03146 0.02456,-0.04064 0.01868,-0.0228 0.04533,-0.03492 0.07971,-0.03671 0.05927,-0.00311 0.09015,0.02098 0.09282,0.07208 0.00253,0.0482 -0.01852,0.13736 -0.06351,0.26773 -0.00659,0.01925 -0.01064,0.03115 -0.01178,0.0353 0.00133,-0.00046 0.00268,-0.00073 0.00384,-0.00098 0.00115,-0.00025 0.00252,-0.00032 0.00407,-0.00041 0.02078,-0.00108 0.0375,0.00174 0.05012,0.00848 0.01243,0.00675 0.01898,0.01634 0.01963,0.02879 0.00043,0.00834 -0.00397,0.02067 -0.01347,0.03674 -0.00948,0.01609 -0.01963,0.03045 -0.03048,0.0429 -0.01102,0.01266 -0.02049,0.02154 -0.02858,0.02703 -0.00777,0.00449 -0.02307,0.00978 -0.04596,0.01546l-0.00185 0.00926c-0.00242,0.00577 -0.00576,0.01647 -0.0104,0.03191 -0.00683,0.02237 -0.01382,0.04495 -0.02101,0.06774 -0.00699,0.02257 -0.01309,0.04024 -0.01788,0.05276 -0.00499,0.01273 -0.00989,0.02331 -0.0147,0.03194 -0.00593,0.00947 -0.01291,0.01763 -0.02092,0.02447 -0.01754,0.01495 -0.03773,0.0275 -0.06077,0.03768 -0.02324,0.01018 -0.04243,0.01567 -0.05798,0.01648 -0.01787,0.00094 -0.03208,-0.0026 -0.04284,-0.01081 -0.01075,-0.0082 -0.01646,-0.02038 -0.0173,-0.03631 -0.00142,-0.0272 0.00999,-0.08469 0.03442,-0.17248 0.0058,-0.0192 0.00974,-0.03344 0.012,-0.04232l-0.20338 0.00793zm0.56896 0.22688m0.60003 -0.3949l-0.16195 0.18432 0.14906 0.04274 0.01514 -0.22641 -0.00225 -0.00065zm-0.00583 -0.15753l-0.01597 -0.06995c0.01029,-0.00414 0.01944,-0.00637 0.02748,-0.0069 0.03079,-0.00149 0.06617,0.00358 0.106,0.01501 0.04003,0.01148 0.06775,0.03198 0.08323,0.06132 0.01315,0.02542 0.02063,0.05793 0.02239,0.0977 0.00161,0.03952 -0.00198,0.09437 -0.01102,0.16403 -0.00414,0.03566 -0.00676,0.06243 -0.00777,0.08076 -0.00083,0.05159 -0.0012,0.08468 -0.00071,0.09918 0.0003,0.01447 0.00187,0.03798 0.00435,0.07027 0.00132,0.00949 0.00281,0.02267 0.00445,0.03953 0.00164,0.01686 0.00336,0.03274 0.00502,0.04739 0.00401,0.03192 0.01132,0.0749 0.02242,0.12869 -0.03684,0.01271 -0.06729,0.02078 -0.09117,0.02426 -0.02382,0.00329 -0.04465,0.00258 -0.06206,-0.00242 -0.02169,-0.00621 -0.0384,-0.01567 -0.0504,-0.02821 -0.01204,-0.01235 -0.02127,-0.02958 -0.02765,-0.05105 -0.0069,-0.02889 -0.01104,-0.06671 -0.01265,-0.11332 -0.00032,-0.00455 -0.00056,-0.01009 -0.00084,-0.01685 -0.00024,-0.00694 -0.00055,-0.01432 -0.00108,-0.02237 -0.04779,0.00573 -0.08365,0.00516 -0.10741,-0.00165 -0.01346,-0.00387 -0.02514,-0.00762 -0.03465,-0.01115 -0.0082,-0.00316 -0.04678,-0.01544 -0.11575,-0.03684l-0.00877 0.00943c-0.03262,0.0368 -0.06102,0.06388 -0.0848,0.08114 -0.02402,0.0174 -0.04872,0.02732 -0.07411,0.02975 -0.02544,0.00263 -0.0554,-0.0009 -0.08963,-0.01072 -0.01983,-0.00568 -0.03322,-0.01195 -0.04034,-0.01885 -0.00719,-0.00672 -0.00926,-0.015 -0.00642,-0.02491 0.00344,-0.01198 0.033,-0.03953 0.08882,-0.08242 0.01968,-0.015 0.03463,-0.02691 0.04466,-0.03578 -0.03626,-0.01828 -0.0516,-0.03747 -0.04597,-0.0571 0.00461,-0.01608 0.02682,-0.03563 0.06661,-0.05863 0.01898,-0.01115 0.03543,-0.01695 0.04918,-0.01767 0.0139,-0.00046 0.03662,0.00361 0.06814,0.01226 0.04458,-0.04532 0.07291,-0.07423 0.08524,-0.08689 0.01229,-0.01247 0.02806,-0.02799 0.04721,-0.04678 0.01935,-0.01874 0.0411,-0.04024 0.06563,-0.06437 0.02448,-0.02396 0.0573,-0.05583 0.09834,-0.09589zm0.23276 0.79756m0.26581 -0.1474l0.09275 -0.06723 0.12166 -0.08363c0.04334,-0.03085 0.0792,-0.05407 0.10766,-0.06985 0.02029,-0.01095 0.03282,-0.0201 0.03738,-0.02688 0.00621,-0.00918 0.00554,-0.02419 -0.00197,-0.04475 -0.00537,-0.01325 -0.0063,-0.02231 -0.00292,-0.02731 0.00436,-0.00646 0.01848,-0.00654 0.0429,-0.00064 0.02146,0.00439 0.04463,0.01109 0.06956,0.0204 0.02494,0.00931 0.04404,0.01821 0.05727,0.02713 0.02646,0.01785 0.04166,0.03843 0.04565,0.06176 0.00492,0.0268 -0.00934,0.08969 -0.04285,0.18914 -0.0136,0.04034 -0.02531,0.08033 -0.0353,0.11982 -0.00992,0.03977 -0.01575,0.06894 -0.01752,0.08793 -0.00128,0.00641 -0.00211,0.02016 -0.00238,0.0411 0.03279,-0.02599 0.07432,-0.06112 0.12464,-0.10509 0.0777,-0.07033 0.13526,-0.11459 0.17242,-0.13248 0.01175,-0.00592 0.02354,-0.01016 0.03537,-0.01275 0.02095,-0.00324 0.04119,-0.00297 0.06043,0.00086 0.01908,0.00373 0.03631,0.01089 0.05132,0.02101 0.00919,0.0062 0.01396,0.01269 0.01425,0.01993 0.00022,0.00696 -0.00377,0.01671 -0.01204,0.02896 -0.0062,0.0092 -0.01141,0.01554 -0.01564,0.01903 -0.01406,0.01422 -0.03406,0.0317 -0.05933,0.05246 -0.02542,0.02063 -0.05907,0.04652 -0.10095,0.07765 -0.04188,0.03112 -0.09308,0.0684 -0.15343,0.11195l-0.01896 0.0128c-0.00769,0.00584 -0.01409,0.01045 -0.01902,0.01393 -0.11025,0.08099 -0.18591,0.13088 -0.22735,0.14916 -0.00849,0.0039 -0.01747,0.00676 -0.02693,0.0086 -0.01647,0.0032 -0.02925,0.00163 -0.03877,-0.0048 -0.02419,-0.01632 -0.03308,-0.05986 -0.02617,-0.13031 0.01132,-0.12707 0.03552,-0.24923 0.07241,-0.36656 0.00633,-0.02225 0.01335,-0.04241 0.02116,-0.0606l-0.00193 -0.0013 -0.1787 0.14139c-0.00282,0.00279 -0.00665,0.00606 -0.01186,0.00959 -0.0052,0.00354 -0.00997,0.00713 -0.01403,0.01072 -0.00369,0.00267 -0.00791,0.00546 -0.01236,0.00857 -0.0046,0.00299 -0.00845,0.00556 -0.01169,0.00759 -0.03171,0.0244 -0.05609,0.04245 -0.07347,0.05396 -0.01739,0.0115 -0.03281,0.02011 -0.0465,0.02614 -0.01217,0.00586 -0.02764,0.01069 -0.04649,0.01464 -0.02599,0.00407 -0.05171,0.0036 -0.077,-0.00101 -0.02517,-0.00478 -0.04747,-0.01348 -0.06667,-0.02643 -0.01613,-0.01088 -0.01967,-0.02266 -0.01097,-0.03557 0.00664,-0.00984 0.02505,-0.02182 0.0553,-0.0364 0.03494,-0.01632 0.07868,-0.0415 0.13148,-0.07559 0.0104,-0.00777 0.02351,-0.01677 0.03959,-0.02704zm0.48917 0.6925m0.77359 -0.09467l-0.40888 0.18363c-0.00259,0.00112 -0.00902,0.00431 -0.01913,0.00975 -0.02773,0.01368 -0.05061,0.02221 -0.06884,0.02569 -0.01359,0.00301 -0.03092,0.00477 -0.05208,0.00463 0.00653,0.00898 0.01393,0.01875 0.02264,0.02949 0.02081,0.02571 0.03973,0.04568 0.0569,0.06008 0.01744,0.01441 0.03605,0.02564 0.05636,0.03372 0.02019,0.00794 0.04204,0.01328 0.06558,0.01574 0.04492,0.00418 0.08926,-0.00044 0.13303,-0.01409 0.04378,-0.01366 0.08488,-0.03619 0.12359,-0.06753 0.03539,-0.02865 0.06331,-0.06002 0.08377,-0.09412 0.02018,-0.03412 0.03114,-0.06728 0.03246,-0.09965 0.00148,-0.03248 -0.00708,-0.06161 -0.0254,-0.08734zm-0.68338 0.05767l0.44114 -0.18273c0.03377,-0.01457 0.05937,-0.02253 0.07704,-0.02358 0.01055,-0.00027 0.02138,0.00197 0.03251,0.00673l0.0018 -0.00147 -0.00501 -0.0062c-0.00698,-0.00861 -0.02627,-0.02253 -0.05813,-0.04179 -0.03441,-0.02147 -0.05621,-0.03787 -0.06527,-0.04905 -0.00478,-0.0059 -0.00702,-0.01084 -0.00677,-0.01456 0.00028,-0.00398 0.0029,-0.00785 0.00804,-0.01201 0.01179,-0.00955 0.02734,-0.01663 0.0468,-0.02137 0.01945,-0.00474 0.03897,-0.00628 0.05873,-0.00476 0.01991,0.00141 0.03672,0.00607 0.05062,0.01334 0.03079,0.01763 0.06681,0.04605 0.10804,0.08552 0.04123,0.03946 0.08292,0.08507 0.12467,0.13664 0.04507,0.05564 0.0745,0.10993 0.08871,0.16302 0.01404,0.05321 0.01234,0.10366 -0.0057,0.15158 -0.01792,0.04805 -0.05099,0.09161 -0.09938,0.13079 -0.04884,0.03955 -0.10568,0.06954 -0.17079,0.09023 -0.06527,0.0208 -0.12739,0.0288 -0.18649,0.02384 -0.13972,-0.01055 -0.26014,-0.07853 -0.36128,-0.20343 -0.03244,-0.04008 -0.05902,-0.07939 -0.07946,-0.11791 -0.02031,-0.03839 -0.03006,-0.06681 -0.02937,-0.08513 -0.00022,-0.0111 0.00495,-0.02078 0.01538,-0.02923 0.00258,-0.00209 0.0073,-0.00491 0.01417,-0.00847zm0.37872 0.64791m0.71922 0.07926l-0.03829 0.01969c-0.00586,0.00371 -0.01653,0.00906 -0.03187,0.01579 -0.09405,0.04547 -0.17581,0.09145 -0.24541,0.13817 -0.02897,0.02009 -0.05622,0.04139 -0.08183,0.06372 0.03551,0.00346 0.07334,0.00644 0.1133,0.00902 0.01513,0.00087 0.02914,0.00154 0.04246,0.00205 0.01322,0.00075 0.02211,0.0011 0.02648,0.00109 0.00463,0.0001 0.01351,0.00044 0.02672,0.0012 0.02067,0.00062 0.05651,0.00061 0.10761,0.00017 0.03383,-0.00089 0.05643,-0.00124 0.06725,-0.00122 0.0111,0.00012 0.03042,0.00103 0.05811,0.00313 0.03444,0.00178 0.06707,0.00967 0.09799,0.02345 0.01814,0.00761 0.03625,0.01733 0.05452,0.02908 0.01844,0.01168 0.03382,0.02349 0.04612,0.03544 0.0123,0.01196 0.02017,0.02269 0.02365,0.03177 0.00537,0.01399 0.00257,0.02298 -0.00833,0.02716 -0.00999,0.00384 -0.02435,0.00498 -0.04319,0.00367 -0.05615,-0.00076 -0.12597,-0.00459 -0.20967,-0.01143 -0.08345,-0.00674 -0.16562,-0.015 -0.24616,-0.02451 -0.08074,-0.00943 -0.14511,-0.01912 -0.19303,-0.02886 -0.04067,-0.00711 -0.07805,-0.01547 -0.11243,-0.0252 -0.06657,-0.01759 -0.11931,-0.0361 -0.15832,-0.05574 -0.03918,-0.01955 -0.07409,-0.04533 -0.10501,-0.07702 -0.0165,-0.01639 -0.0314,-0.03567 -0.0449,-0.0578 -0.00955,-0.01674 -0.01631,-0.02999 -0.02015,-0.03998 -0.0069,-0.01798 -0.0092,-0.03378 -0.0071,-0.0473 0.00211,-0.01352 0.00909,-0.02245 0.02073,-0.02691 0.01307,-0.00502 0.03513,-0.0062 0.0661,-0.00371 0.03078,0.00257 0.05633,0.00777 0.07638,0.01549 0.01182,0.00526 0.02231,0.01957 0.03131,0.04301 0.00983,0.0256 0.02096,0.04592 0.03365,0.06106 0.00787,0.01074 0.01716,0.02134 0.02828,0.03187 0.01087,0.01042 0.02474,0.02156 0.04141,0.0335 0.03605,-0.04509 0.0704,-0.08538 0.10337,-0.12054 0.03291,-0.03536 0.06608,-0.06726 0.09985,-0.09607 0.04375,-0.03805 0.09252,-0.07386 0.14637,-0.10786 0.05391,-0.03383 0.10255,-0.05917 0.14596,-0.07582 0.02505,-0.00962 0.04524,-0.01405 0.06031,-0.01337 0.01524,0.00061 0.02979,0.00648 0.04377,0.01738 0.02096,0.01551 0.04107,0.03425 0.06035,0.05624 0.01928,0.02199 0.03183,0.04113 0.03811,0.05748 0.0053,0.01381 0.00396,0.02495 -0.00415,0.03369 -0.008,0.00849 -0.02777,0.01941 -0.05877,0.03257 -0.02237,0.01066 -0.03967,0.01939 -0.05155,0.02645z"/>
  </g>
 </g>
</svg>
